<svg xmlns="http://www.w3.org/2000/svg" viewBox="0 0 100 100">
<g opacity="0.85"><path d="M30 40 C12 30 2 34 6 44 C8 50 16 50 22 48 C14 52 8 58 12 64 C16 68 26 62 32 54 Z" fill="#fbfbfb" stroke="#dfe4ea" stroke-width="0.8"/><path d="M70 40 C88 30 98 34 94 44 C92 50 84 50 78 48 C86 52 92 58 88 64 C84 68 74 62 68 54 Z" fill="#fbfbfb" stroke="#dfe4ea" stroke-width="0.8"/>
<g transform="rotate(-8 37 95)"><ellipse cx="37" cy="95" rx="10" ry="5" fill="#f7a70b" stroke="#d4870a" stroke-width="1"/></g><g transform="rotate(8 63 95)"><ellipse cx="63" cy="95" rx="10" ry="5" fill="#f7a70b" stroke="#d4870a" stroke-width="1"/></g>
<path d="M50 8 C31 8 21 27 21 52 C21 80 33 94 50 94 C67 94 79 80 79 52 C79 27 69 8 50 8 Z" fill="#1b1b1b"/>
<path d="M22 44 C12 50 11 74 17 85 C21 89 26 83 26 74 C26 62 27 52 29 46 Z" fill="#1b1b1b"/><path d="M78 44 C88 50 89 74 83 85 C79 89 74 83 74 74 C74 62 73 52 71 46 Z" fill="#1b1b1b"/>
<path d="M50 40 C37 40 30 55 30 72 C30 87 39 92 50 92 C61 92 70 87 70 72 C70 55 63 40 50 40 Z" fill="#f4f4f4"/>
<ellipse cx="42" cy="33" rx="6" ry="8" fill="#fff"/><ellipse cx="42.0" cy="35" rx="2.6" ry="3.4" fill="#1b1b1b"/>
<ellipse cx="58" cy="33" rx="6" ry="8" fill="#fff"/><ellipse cx="58.0" cy="35" rx="2.6" ry="3.4" fill="#1b1b1b"/>
<path d="M50 35 C44 35 40 40 40 44 C40 47 45 49 50 49 C55 49 60 47 60 44 C60 40 56 35 50 35 Z" fill="#f7a70b" stroke="#d4870a" stroke-width="0.8"/><path d="M40 44 C46 47 54 47 60 44" fill="none" stroke="#d4870a" stroke-width="1.1"/>
<ellipse cx="50" cy="2" rx="15" ry="4.5" fill="none" stroke="#ffe98a" stroke-width="2.4"/></g>
</svg>
