<svg xmlns="http://www.w3.org/2000/svg" viewBox="0 0 100 100">
<path d="M50 78 C30 78 14 84 16 90 C18 96 40 96 50 95 C60 96 82 96 84 90 C86 84 70 78 50 78 Z" fill="#cf1020"/><path d="M50 66 C42 66 36 76 40 86 L60 86 C64 76 58 66 50 66 Z" fill="#cf1020"/><path d="M50 60 L46 82 L54 82 Z" fill="#8f0a15"/><circle cx="22" cy="80" r="3" fill="#cf1020"/><circle cx="80" cy="82" r="2.5" fill="#cf1020"/><circle cx="30" cy="92" r="1.8" fill="#8f0a15"/><circle cx="72" cy="92" r="1.8" fill="#8f0a15"/><path d="M42 74 l4 4 m0 -4 l-4 4" stroke="#fff" stroke-width="1.4"/><path d="M54 74 l4 4 m0 -4 l-4 4" stroke="#fff" stroke-width="1.4"/>
</svg>
