<svg xmlns="http://www.w3.org/2000/svg" viewBox="0 0 100 100">
<g transform="rotate(-10 38 94)"><ellipse cx="38" cy="94" rx="13" ry="4.8" fill="#f7a70b" stroke="#d4870a" stroke-width="1"/></g><g transform="rotate(9 61 93)"><ellipse cx="61" cy="93" rx="10.5" ry="4" fill="#f7a70b" stroke="#d4870a" stroke-width="1"/></g><path d="M61 42 C63 21 55 7 41 8 C27 10 19 23 21 39 C22 48 20 57 21 68 C23 86 35 95 50 92 C64 89 68 77 66 60 C65 52 62 46 61 42 Z" fill="#1b1b1b"/><path d="M44 13 C49 7 59 7 63 14 C66 20 62 28 55 30 C48 32 43 29 41 22 C40 18 41 15 44 13 Z" fill="#1b1b1b"/><path d="M47 8 L50 3 L53 8" fill="none" stroke="#f7a70b" stroke-width="1.8" stroke-linecap="round"/><path d="M30 45 C22 53 22 74 28 84 C33 91 45 90 50 84 C51 70 50 56 47 47 C42 42 34 41 30 45 Z" fill="#f4f4f4"/><path d="M25 35 C16 34 11 38 11 41 C11 45 16 47 25 45 Z" fill="#f7a70b" stroke="#d4870a" stroke-width="0.9"/><ellipse cx="33.2" cy="27.9" rx="6.7" ry="8.6" fill="#fff"/><ellipse cx="30.3" cy="29.4" rx="2.8" ry="3.7" fill="#1b1b1b"/><ellipse cx="38.6" cy="30.8" rx="1.5" ry="2.1" fill="#1b1b1b" transform="rotate(15 38.6 30.8)"/><path d="M55 41 C66 45 73 58 72 72 C71 82 65 87 59 85 C54 83 50 74 49 64 C48 55 50 46 55 41 Z" fill="#1b1b1b"/><path d="M63 58 C67 63 69 70 68 78" fill="none" stroke="#3a3a3a" stroke-width="1" stroke-linecap="round"/><ellipse cx="66.6" cy="84" rx="4.2" ry="2.8" fill="#1b1b1b"/>
</svg>
