<svg xmlns="http://www.w3.org/2000/svg" viewBox="0 0 100 100">
<defs>
<radialGradient id="sh" cx="38%" cy="26%" r="72%"><stop offset="0%" stop-color="#ffe082"/><stop offset="28%" stop-color="#ffc107"/><stop offset="65%" stop-color="#e65100"/><stop offset="100%" stop-color="#5d2600"/></radialGradient>
<radialGradient id="gl" cx="36%" cy="22%" r="45%"><stop offset="0%" stop-color="rgba(255,255,255,0.55)"/><stop offset="55%" stop-color="rgba(255,255,255,0.09)"/><stop offset="100%" stop-color="rgba(255,255,255,0)"/></radialGradient>
<radialGradient id="hd" cx="42%" cy="26%" r="62%"><stop offset="0%" stop-color="#2a1500"/><stop offset="100%" stop-color="#0a0400"/></radialGradient>
<radialGradient id="gs" cx="50%" cy="50%" r="50%"><stop offset="0%" stop-color="rgba(0,0,0,0.32)"/><stop offset="100%" stop-color="rgba(0,0,0,0)"/></radialGradient>
<radialGradient id="sk" cx="33%" cy="27%" r="68%"><stop offset="0%" stop-color="#200900"/><stop offset="100%" stop-color="#000000"/></radialGradient>
<filter id="sf" x="-60%" y="-60%" width="220%" height="220%"><feGaussianBlur stdDeviation="3"/></filter>
</defs>
<ellipse cx="50" cy="68" rx="35" ry="10" fill="url(#gs)" filter="url(#sf)"/>
<g stroke="#1a0a00" stroke-width="1.1" stroke-linecap="round" fill="none"><path d="M32 55 C24 49 16 43 8 37"/><path d="M28 62 C19 61 10 60 3 58"/><path d="M30 70 C22 73 14 75 7 77"/><path d="M36 77 C30 83 25 88 21 93"/><path d="M68 55 C76 49 84 43 92 37"/><path d="M72 62 C81 61 90 60 97 58"/><path d="M70 70 C78 73 86 75 93 77"/><path d="M64 77 C70 83 75 88 79 93"/></g>
<ellipse cx="50" cy="62" rx="33" ry="11" fill="url(#sh)"/>
<path d="M50 51 C50.3 58 50.3 65 50 73" stroke="rgba(60,20,0,0.65)" stroke-width="0.85" fill="none"/>
<ellipse cx="50" cy="62" rx="33" ry="11" fill="none" stroke="rgba(40,10,0,0.88)" stroke-width="1.5"/>
<ellipse cx="39" cy="59" rx="5" ry="3" fill="url(#sk)"/><ellipse cx="61" cy="59" rx="5" ry="3" fill="url(#sk)"/><ellipse cx="37" cy="66" rx="4" ry="2.5" fill="url(#sk)"/><ellipse cx="63" cy="66" rx="4" ry="2.5" fill="url(#sk)"/>
<ellipse cx="50" cy="62" rx="33" ry="11" fill="url(#gl)"/>
<path d="M32 50 Q50 55 68 50 L66 48 Q50 52 34 48 Z" fill="#100600"/>
<ellipse cx="50" cy="47" rx="18" ry="6" fill="url(#hd)"/><ellipse cx="50" cy="47" rx="18" ry="6" fill="none" stroke="rgba(0,0,0,0.72)" stroke-width="0.7"/>
<path d="M45 46 l3 3 m0-3 l-3 3" stroke="rgba(255,255,255,0.80)" stroke-width="1.3" stroke-linecap="round" fill="none"/>
<path d="M55 46 l3 3 m0-3 l-3 3" stroke="rgba(255,255,255,0.80)" stroke-width="1.3" stroke-linecap="round" fill="none"/>
<path d="M24 56 L16 50 M26 63 L18 62 M76 56 L84 50 M74 63 L82 62" stroke="rgba(255,200,50,0.50)" stroke-width="0.9" stroke-linecap="round" fill="none"/>
</svg>
