<svg xmlns="http://www.w3.org/2000/svg" viewBox="0 0 100 100">
<defs>
<radialGradient id="sh" cx="38%" cy="26%" r="72%"><stop offset="0%" stop-color="#81c784"/><stop offset="28%" stop-color="#43a047"/><stop offset="65%" stop-color="#2e7d32"/><stop offset="100%" stop-color="#183518"/></radialGradient>
<radialGradient id="gl" cx="36%" cy="22%" r="45%"><stop offset="0%" stop-color="rgba(255,255,200,0.48)"/><stop offset="55%" stop-color="rgba(255,255,180,0.07)"/><stop offset="100%" stop-color="rgba(255,255,255,0)"/></radialGradient>
<radialGradient id="hd" cx="42%" cy="26%" r="62%"><stop offset="0%" stop-color="#1a3020"/><stop offset="100%" stop-color="#050f07"/></radialGradient>
<radialGradient id="gs" cx="50%" cy="50%" r="50%"><stop offset="0%" stop-color="rgba(0,0,0,0.32)"/><stop offset="100%" stop-color="rgba(0,0,0,0)"/></radialGradient>
<radialGradient id="sk" cx="33%" cy="27%" r="68%"><stop offset="0%" stop-color="#0a1c08"/><stop offset="100%" stop-color="#000000"/></radialGradient>
<filter id="sf" x="-60%" y="-60%" width="220%" height="220%"><feGaussianBlur stdDeviation="3"/></filter>
</defs>
<ellipse cx="50" cy="93" rx="18" ry="4" fill="url(#gs)" filter="url(#sf)" opacity="0.35"/>
<g transform="rotate(22, 50, 55)">
<g stroke="#111a0f" stroke-width="1.2" stroke-linecap="round" fill="none"><path d="M38 50 C30 43 21 37 13 33"/><path d="M37 61 C28 57 18 53 10 49"/><path d="M38 73 C30 69 22 66 14 64"/><path d="M62 50 C70 43 79 37 87 33"/><path d="M63 61 C72 57 82 53 90 49"/><path d="M62 73 C70 69 78 66 86 64"/></g>
<ellipse cx="50" cy="63" rx="21" ry="24" fill="url(#sh)"/>
<path d="M50 40 C50.5 55 50.5 72 50 87" stroke="rgba(0,40,0,0.60)" stroke-width="0.85" fill="none"/>
<ellipse cx="50" cy="63" rx="21" ry="24" fill="none" stroke="rgba(0,20,0,0.88)" stroke-width="1.5"/>
<circle cx="42" cy="54" r="5.2" fill="url(#sk)"/><circle cx="58" cy="54" r="5.2" fill="url(#sk)"/><circle cx="40" cy="67" r="4.2" fill="url(#sk)"/><circle cx="60" cy="67" r="4.2" fill="url(#sk)"/><circle cx="46" cy="79" r="3.1" fill="url(#sk)"/><circle cx="54" cy="79" r="3.1" fill="url(#sk)"/>
<ellipse cx="50" cy="63" rx="21" ry="24" fill="url(#gl)"/>
<path d="M37 42 Q50 49 63 42 L61 40 Q50 44 39 40 Z" fill="#0a150a"/>
<ellipse cx="50" cy="37" rx="12.5" ry="9.5" fill="url(#hd)"/><ellipse cx="50" cy="37" rx="12.5" ry="9.5" fill="none" stroke="rgba(0,0,0,0.72)" stroke-width="0.7"/>
<ellipse cx="45" cy="33" rx="5" ry="3" fill="rgba(255,255,200,0.09)" transform="rotate(-12 45 33)"/>
<circle cx="44" cy="34.5" r="3.1" fill="#151515"/><circle cx="56" cy="34.5" r="3.1" fill="#151515"/>
<ellipse cx="43" cy="33.4" rx="1.1" ry="0.9" fill="rgba(200,150,50,0.50)"/><ellipse cx="55" cy="33.4" rx="1.1" ry="0.9" fill="rgba(200,150,50,0.50)"/>
<path d="M44 29 C40 22 36 17 32 13" stroke="#141f12" stroke-width="1.1" fill="none" stroke-linecap="round"/><circle cx="32" cy="13" r="1.8" fill="#141f12"/><circle cx="32" cy="13" r="0.65" fill="rgba(200,230,100,0.25)"/>
<path d="M56 29 C60 22 64 17 68 13" stroke="#141f12" stroke-width="1.1" fill="none" stroke-linecap="round"/><circle cx="68" cy="13" r="1.8" fill="#141f12"/><circle cx="68" cy="13" r="0.65" fill="rgba(200,230,100,0.25)"/>
</g>
</svg>
