<svg xmlns="http://www.w3.org/2000/svg" viewBox="0 0 100 100">
<path d="M50 -6 L64 20 L36 20 Z" fill="#26304a"/><ellipse cx="50" cy="20" rx="17" ry="4" fill="#1a2236"/><circle cx="50" cy="-4" r="2.4" fill="#ffe98a"/><g transform="rotate(-10 38 94)"><ellipse cx="38" cy="94" rx="10" ry="5" fill="#f7a70b" stroke="#d4870a" stroke-width="1"/></g><g transform="rotate(10 62 94)"><ellipse cx="62" cy="94" rx="10" ry="5" fill="#f7a70b" stroke="#d4870a" stroke-width="1"/></g><path d="M50 8 C31 8 21 27 21 52 C21 80 33 94 50 94 C67 94 79 80 79 52 C79 27 69 8 50 8 Z" fill="#1b1b1b"/><path d="M50 40 C37 40 30 55 30 72 C30 87 39 92 50 92 C61 92 70 87 70 72 C70 55 63 40 50 40 Z" fill="#f4f4f4"/><ellipse cx="43" cy="34" rx="6" ry="8" fill="#fff"/><ellipse cx="41.75" cy="36" rx="2.6" ry="3.4" fill="#1b1b1b"/><ellipse cx="57" cy="34" rx="6" ry="8" fill="#fff"/><ellipse cx="55.75" cy="36" rx="2.6" ry="3.4" fill="#1b1b1b"/><path d="M50 37 C44 37 40 42 40 46 C40 49 45 51 50 51 C55 51 60 49 60 46 C60 42 56 37 50 37 Z" fill="#f7a70b" stroke="#d4870a" stroke-width="0.8"/><path d="M40 46 C46 49 54 49 60 46" fill="none" stroke="#d4870a" stroke-width="1.1"/><path d="M22 44 C12 50 11 74 17 85 C21 89 26 83 26 74 C26 62 27 52 29 46 Z" fill="#1b1b1b"/><path d="M78 44 C88 50 89 74 83 85 C79 89 74 83 74 74 C74 62 73 52 71 46 Z" fill="#1b1b1b"/><path d="M28 64 L50 60 L72 64 L72 90 L50 86 L28 90 Z" fill="#3aa655"/><path d="M50 60 L50 86" stroke="#2f8a45" stroke-width="1.6"/><path d="M32 68 L47 65 M32 74 L47 71 M32 80 L47 77" stroke="#eafaf0" stroke-width="0.8"/><path d="M53 65 L68 68 M53 71 L68 74 M53 77 L68 80" stroke="#eafaf0" stroke-width="0.8"/>
</svg>
