<svg xmlns="http://www.w3.org/2000/svg" width="360" height="30" viewBox="0 0 360 30">
  <rect x="12" y="4" width="1" height="1" fill="#626266"/>
  <rect x="13" y="4" width="3" height="1" fill="#191918"/>
  <rect x="16" y="4" width="1" height="1" fill="#626266"/>
  <rect x="11" y="5" width="1" height="1" fill="#626266"/>
  <rect x="12" y="5" width="1" height="1" fill="#292929"/>
  <rect x="13" y="5" width="2" height="1" fill="#191918"/>
  <rect x="15" y="5" width="1" height="1" fill="#040204"/>
  <rect x="16" y="5" width="1" height="1" fill="#191918"/>
  <rect x="17" y="5" width="1" height="1" fill="#626266"/>
  <rect x="11" y="6" width="2" height="1" fill="#191918"/>
  <rect x="13" y="6" width="6" height="1" fill="#040204"/>
  <rect x="10" y="7" width="1" height="1" fill="#626266"/>
  <rect x="11" y="7" width="3" height="1" fill="#191918"/>
  <rect x="14" y="7" width="1" height="1" fill="#80807f"/>
  <rect x="15" y="7" width="1" height="1" fill="#fefef6"/>
  <rect x="16" y="7" width="1" height="1" fill="#040204"/>
  <rect x="17" y="7" width="1" height="1" fill="#292929"/>
  <rect x="10" y="8" width="2" height="1" fill="#191918"/>
  <rect x="12" y="8" width="1" height="1" fill="#363636"/>
  <rect x="13" y="8" width="1" height="1" fill="#fefef6"/>
  <rect x="14" y="8" width="1" height="1" fill="#80807f"/>
  <rect x="15" y="8" width="1" height="1" fill="#423e3e"/>
  <rect x="16" y="8" width="1" height="1" fill="#6e5d41"/>
  <rect x="17" y="8" width="1" height="1" fill="#463015"/>
  <rect x="18" y="8" width="1" height="1" fill="#040204"/>
  <rect x="10" y="9" width="1" height="1" fill="#191918"/>
  <rect x="11" y="9" width="1" height="1" fill="#292929"/>
  <rect x="12" y="9" width="1" height="1" fill="#191918"/>
  <rect x="13" y="9" width="1" height="1" fill="#efd19f"/>
  <rect x="14" y="9" width="2" height="1" fill="#fcd98e"/>
  <rect x="16" y="9" width="1" height="1" fill="#efd19f"/>
  <rect x="17" y="9" width="1" height="1" fill="#eeeae2"/>
  <rect x="18" y="9" width="1" height="1" fill="#fe8b06"/>
  <rect x="19" y="9" width="1" height="1" fill="#d65a0d"/>
  <rect x="9" y="10" width="1" height="1" fill="#96968e"/>
  <rect x="10" y="10" width="1" height="1" fill="#363636"/>
  <rect x="11" y="10" width="1" height="1" fill="#191918"/>
  <rect x="12" y="10" width="1" height="1" fill="#5a420a"/>
  <rect x="13" y="10" width="1" height="1" fill="#feb134"/>
  <rect x="14" y="10" width="1" height="1" fill="#fcd98e"/>
  <rect x="15" y="10" width="2" height="1" fill="#fee696"/>
  <rect x="17" y="10" width="1" height="1" fill="#fcd98e"/>
  <rect x="18" y="10" width="1" height="1" fill="#fec67d"/>
  <rect x="19" y="10" width="2" height="1" fill="#fea23e"/>
  <rect x="21" y="10" width="1" height="1" fill="#fa983a"/>
  <rect x="22" y="10" width="1" height="1" fill="#fd7403"/>
  <rect x="3" y="11" width="2" height="1" fill="#e2dacd"/>
  <rect x="5" y="11" width="1" height="1" fill="#d6caba"/>
  <rect x="6" y="11" width="1" height="1" fill="#c2baa6"/>
  <rect x="7" y="11" width="1" height="1" fill="#292929"/>
  <rect x="8" y="11" width="4" height="1" fill="#040204"/>
  <rect x="12" y="11" width="1" height="1" fill="#261202"/>
  <rect x="13" y="11" width="3" height="1" fill="#040204"/>
  <rect x="16" y="11" width="2" height="1" fill="#261202"/>
  <rect x="18" y="11" width="1" height="1" fill="#1a0a02"/>
  <rect x="19" y="11" width="2" height="1" fill="#040204"/>
  <rect x="21" y="11" width="1" height="1" fill="#0b0a0a"/>
  <rect x="22" y="11" width="1" height="1" fill="#a9abac"/>
  <rect x="23" y="11" width="3" height="1" fill="#aea28e"/>
  <rect x="26" y="11" width="1" height="1" fill="#c2baa6"/>
  <rect x="2" y="12" width="1" height="1" fill="#eeeae2"/>
  <rect x="3" y="12" width="1" height="1" fill="#e2dacd"/>
  <rect x="4" y="12" width="1" height="1" fill="#c2baa6"/>
  <rect x="5" y="12" width="1" height="1" fill="#e2dacd"/>
  <rect x="6" y="12" width="1" height="1" fill="#c2baa6"/>
  <rect x="7" y="12" width="1" height="1" fill="#e2dacd"/>
  <rect x="8" y="12" width="1" height="1" fill="#c2baa6"/>
  <rect x="9" y="12" width="1" height="1" fill="#d6caba"/>
  <rect x="10" y="12" width="3" height="1" fill="#040204"/>
  <rect x="13" y="12" width="1" height="1" fill="#121212"/>
  <rect x="14" y="12" width="2" height="1" fill="#363636"/>
  <rect x="16" y="12" width="1" height="1" fill="#121212"/>
  <rect x="17" y="12" width="3" height="1" fill="#040204"/>
  <rect x="20" y="12" width="2" height="1" fill="#c2baa6"/>
  <rect x="22" y="12" width="1" height="1" fill="#d6caba"/>
  <rect x="23" y="12" width="1" height="1" fill="#aea28e"/>
  <rect x="24" y="12" width="4" height="1" fill="#c2baa6"/>
  <rect x="2" y="13" width="3" height="1" fill="#22de72"/>
  <rect x="5" y="13" width="2" height="1" fill="#eeeae2"/>
  <rect x="7" y="13" width="1" height="1" fill="#f6f2e6"/>
  <rect x="8" y="13" width="1" height="1" fill="#eeeae2"/>
  <rect x="9" y="13" width="2" height="1" fill="#e2dacd"/>
  <rect x="11" y="13" width="1" height="1" fill="#c2baa6"/>
  <rect x="12" y="13" width="1" height="1" fill="#d6caba"/>
  <rect x="13" y="13" width="1" height="1" fill="#a9abac"/>
  <rect x="14" y="13" width="1" height="1" fill="#c2baa6"/>
  <rect x="15" y="13" width="1" height="1" fill="#e2dacd"/>
  <rect x="16" y="13" width="2" height="1" fill="#aea28e"/>
  <rect x="18" y="13" width="2" height="1" fill="#d6caba"/>
  <rect x="20" y="13" width="1" height="1" fill="#c2baa6"/>
  <rect x="21" y="13" width="1" height="1" fill="#aea28e"/>
  <rect x="22" y="13" width="3" height="1" fill="#c2baa6"/>
  <rect x="25" y="13" width="3" height="1" fill="#36962e"/>
  <rect x="2" y="14" width="7" height="1" fill="#22de72"/>
  <rect x="9" y="14" width="4" height="1" fill="#f6f2e6"/>
  <rect x="13" y="14" width="1" height="1" fill="#e2dacd"/>
  <rect x="14" y="14" width="3" height="1" fill="#c2baa6"/>
  <rect x="17" y="14" width="1" height="1" fill="#eae2da"/>
  <rect x="18" y="14" width="3" height="1" fill="#c2baa6"/>
  <rect x="21" y="14" width="7" height="1" fill="#36962e"/>
  <rect x="2" y="15" width="11" height="1" fill="#22de72"/>
  <rect x="13" y="15" width="4" height="1" fill="#26ba3a"/>
  <rect x="17" y="15" width="11" height="1" fill="#36962e"/>
  <rect x="2" y="16" width="1" height="1" fill="#e2dacd"/>
  <rect x="3" y="16" width="10" height="1" fill="#22de72"/>
  <rect x="13" y="16" width="4" height="1" fill="#26ba3a"/>
  <rect x="17" y="16" width="10" height="1" fill="#36962e"/>
  <rect x="27" y="16" width="1" height="1" fill="#c2baa6"/>
  <rect x="3" y="17" width="10" height="1" fill="#22de72"/>
  <rect x="13" y="17" width="4" height="1" fill="#26ba3a"/>
  <rect x="17" y="17" width="10" height="1" fill="#36962e"/>
  <rect x="2" y="18" width="2" height="1" fill="#040204"/>
  <rect x="4" y="18" width="9" height="1" fill="#22de72"/>
  <rect x="13" y="18" width="4" height="1" fill="#26ba3a"/>
  <rect x="17" y="18" width="9" height="1" fill="#36962e"/>
  <rect x="26" y="18" width="2" height="1" fill="#040204"/>
  <rect x="2" y="19" width="3" height="1" fill="#040204"/>
  <rect x="5" y="19" width="8" height="1" fill="#22de72"/>
  <rect x="13" y="19" width="4" height="1" fill="#26ba3a"/>
  <rect x="17" y="19" width="8" height="1" fill="#36962e"/>
  <rect x="25" y="19" width="3" height="1" fill="#040204"/>
  <rect x="3" y="20" width="2" height="1" fill="#040204"/>
  <rect x="5" y="20" width="8" height="1" fill="#22de72"/>
  <rect x="13" y="20" width="4" height="1" fill="#26ba3a"/>
  <rect x="17" y="20" width="8" height="1" fill="#36962e"/>
  <rect x="25" y="20" width="1" height="1" fill="#423e3e"/>
  <rect x="26" y="20" width="1" height="1" fill="#040204"/>
  <rect x="27" y="20" width="1" height="1" fill="#80807f"/>
  <rect x="4" y="21" width="9" height="1" fill="#22de72"/>
  <rect x="13" y="21" width="4" height="1" fill="#26ba3a"/>
  <rect x="17" y="21" width="9" height="1" fill="#36962e"/>
  <rect x="26" y="21" width="1" height="1" fill="#80807f"/>
  <rect x="4" y="22" width="2" height="1" fill="#fec142"/>
  <rect x="6" y="22" width="1" height="1" fill="#d2b276"/>
  <rect x="7" y="22" width="6" height="1" fill="#22de72"/>
  <rect x="13" y="22" width="4" height="1" fill="#26ba3a"/>
  <rect x="17" y="22" width="6" height="1" fill="#36962e"/>
  <rect x="23" y="22" width="1" height="1" fill="#aea28e"/>
  <rect x="24" y="22" width="1" height="1" fill="#fe9a02"/>
  <rect x="25" y="22" width="1" height="1" fill="#feb134"/>
  <rect x="3" y="23" width="1" height="1" fill="#fece56"/>
  <rect x="4" y="23" width="1" height="1" fill="#fed776"/>
  <rect x="5" y="23" width="1" height="1" fill="#feb134"/>
  <rect x="6" y="23" width="1" height="1" fill="#fe8b06"/>
  <rect x="7" y="23" width="1" height="1" fill="#feb134"/>
  <rect x="8" y="23" width="2" height="1" fill="#fec142"/>
  <rect x="10" y="23" width="3" height="1" fill="#22de72"/>
  <rect x="13" y="23" width="4" height="1" fill="#26ba3a"/>
  <rect x="17" y="23" width="4" height="1" fill="#36962e"/>
  <rect x="21" y="23" width="1" height="1" fill="#fd7403"/>
  <rect x="22" y="23" width="2" height="1" fill="#fe9a02"/>
  <rect x="24" y="23" width="1" height="1" fill="#fe8b06"/>
  <rect x="25" y="23" width="1" height="1" fill="#f8b255"/>
  <rect x="26" y="23" width="1" height="1" fill="#fcd98e"/>
  <rect x="3" y="24" width="1" height="1" fill="#fece56"/>
  <rect x="4" y="24" width="1" height="1" fill="#f8b255"/>
  <rect x="5" y="24" width="2" height="1" fill="#fe8b06"/>
  <rect x="7" y="24" width="1" height="1" fill="#fe9a02"/>
  <rect x="8" y="24" width="1" height="1" fill="#fec142"/>
  <rect x="9" y="24" width="1" height="1" fill="#fed776"/>
  <rect x="10" y="24" width="1" height="1" fill="#fec67d"/>
  <rect x="11" y="24" width="2" height="1" fill="#22de72"/>
  <rect x="13" y="24" width="4" height="1" fill="#26ba3a"/>
  <rect x="17" y="24" width="3" height="1" fill="#36962e"/>
  <rect x="20" y="24" width="1" height="1" fill="#fe8b06"/>
  <rect x="21" y="24" width="2" height="1" fill="#feac0b"/>
  <rect x="23" y="24" width="1" height="1" fill="#fe9a02"/>
  <rect x="24" y="24" width="1" height="1" fill="#fd7403"/>
  <rect x="25" y="24" width="1" height="1" fill="#feb134"/>
  <rect x="26" y="24" width="1" height="1" fill="#fcd98e"/>
  <rect x="2" y="25" width="1" height="1" fill="#fee696"/>
  <rect x="3" y="25" width="1" height="1" fill="#fece6a"/>
  <rect x="4" y="25" width="1" height="1" fill="#feb134"/>
  <rect x="5" y="25" width="1" height="1" fill="#fc5602"/>
  <rect x="6" y="25" width="1" height="1" fill="#fd7403"/>
  <rect x="7" y="25" width="1" height="1" fill="#fe9a02"/>
  <rect x="8" y="25" width="1" height="1" fill="#feac0b"/>
  <rect x="9" y="25" width="1" height="1" fill="#fec142"/>
  <rect x="10" y="25" width="1" height="1" fill="#fece56"/>
  <rect x="11" y="25" width="1" height="1" fill="#fec142"/>
  <rect x="12" y="25" width="1" height="1" fill="#22de72"/>
  <rect x="13" y="25" width="4" height="1" fill="#26ba3a"/>
  <rect x="17" y="25" width="1" height="1" fill="#36962e"/>
  <rect x="18" y="25" width="1" height="1" fill="#ee722e"/>
  <rect x="19" y="25" width="1" height="1" fill="#fd7403"/>
  <rect x="20" y="25" width="3" height="1" fill="#feac0b"/>
  <rect x="23" y="25" width="1" height="1" fill="#fe9a02"/>
  <rect x="24" y="25" width="1" height="1" fill="#fd7403"/>
  <rect x="25" y="25" width="1" height="1" fill="#fe922a"/>
  <rect x="26" y="25" width="1" height="1" fill="#fed776"/>
  <rect x="27" y="25" width="1" height="1" fill="#fee9ae"/>
  <rect x="2" y="26" width="1" height="1" fill="#fcd98e"/>
  <rect x="3" y="26" width="1" height="1" fill="#fec142"/>
  <rect x="4" y="26" width="1" height="1" fill="#fe8b06"/>
  <rect x="5" y="26" width="2" height="1" fill="#fc5602"/>
  <rect x="7" y="26" width="1" height="1" fill="#fd7403"/>
  <rect x="8" y="26" width="1" height="1" fill="#fe9a02"/>
  <rect x="9" y="26" width="1" height="1" fill="#feac0b"/>
  <rect x="10" y="26" width="1" height="1" fill="#fcd98e"/>
  <rect x="11" y="26" width="1" height="1" fill="#fece56"/>
  <rect x="12" y="26" width="1" height="1" fill="#261202"/>
  <rect x="13" y="26" width="4" height="1" fill="#26ba3a"/>
  <rect x="17" y="26" width="1" height="1" fill="#4e4e4e"/>
  <rect x="18" y="26" width="1" height="1" fill="#fc5602"/>
  <rect x="19" y="26" width="1" height="1" fill="#fe9a02"/>
  <rect x="20" y="26" width="2" height="1" fill="#feac0b"/>
  <rect x="22" y="26" width="2" height="1" fill="#feb134"/>
  <rect x="24" y="26" width="1" height="1" fill="#fe8b06"/>
  <rect x="25" y="26" width="1" height="1" fill="#fd7403"/>
  <rect x="26" y="26" width="1" height="1" fill="#feb134"/>
  <rect x="27" y="26" width="1" height="1" fill="#fee696"/>
  <rect x="2" y="27" width="1" height="1" fill="#fcd98e"/>
  <rect x="3" y="27" width="2" height="1" fill="#fe8b06"/>
  <rect x="5" y="27" width="1" height="1" fill="#fe922a"/>
  <rect x="6" y="27" width="2" height="1" fill="#fc5602"/>
  <rect x="8" y="27" width="1" height="1" fill="#fd7403"/>
  <rect x="9" y="27" width="1" height="1" fill="#fe9a02"/>
  <rect x="10" y="27" width="1" height="1" fill="#fec142"/>
  <rect x="11" y="27" width="1" height="1" fill="#f8b255"/>
  <rect x="12" y="27" width="1" height="1" fill="#2a1a0a"/>
  <rect x="13" y="27" width="1" height="1" fill="#040204"/>
  <rect x="14" y="27" width="1" height="1" fill="#121212"/>
  <rect x="15" y="27" width="1" height="1" fill="#292929"/>
  <rect x="16" y="27" width="1" height="1" fill="#121212"/>
  <rect x="17" y="27" width="1" height="1" fill="#2a1a0a"/>
  <rect x="18" y="27" width="1" height="1" fill="#fc5602"/>
  <rect x="19" y="27" width="1" height="1" fill="#fe8b06"/>
  <rect x="20" y="27" width="1" height="1" fill="#feb134"/>
  <rect x="21" y="27" width="1" height="1" fill="#fec142"/>
  <rect x="22" y="27" width="1" height="1" fill="#fece56"/>
  <rect x="23" y="27" width="1" height="1" fill="#fec142"/>
  <rect x="24" y="27" width="1" height="1" fill="#feb134"/>
  <rect x="25" y="27" width="1" height="1" fill="#fe8b06"/>
  <rect x="26" y="27" width="1" height="1" fill="#feac0b"/>
  <rect x="27" y="27" width="1" height="1" fill="#fee696"/>
  <rect x="3" y="28" width="1" height="1" fill="#fe922a"/>
  <rect x="4" y="28" width="1" height="1" fill="#fe8b06"/>
  <rect x="5" y="28" width="1" height="1" fill="#fe922a"/>
  <rect x="6" y="28" width="2" height="1" fill="#fc5602"/>
  <rect x="8" y="28" width="1" height="1" fill="#fd7403"/>
  <rect x="9" y="28" width="1" height="1" fill="#fe9a02"/>
  <rect x="10" y="28" width="1" height="1" fill="#fec142"/>
  <rect x="11" y="28" width="1" height="1" fill="#f8b255"/>
  <rect x="12" y="28" width="1" height="1" fill="#2a1a0a"/>
  <rect x="13" y="28" width="1" height="1" fill="#040204"/>
  <rect x="14" y="28" width="1" height="1" fill="#1a0a02"/>
  <rect x="15" y="28" width="1" height="1" fill="#292929"/>
  <rect x="16" y="28" width="1" height="1" fill="#121212"/>
  <rect x="17" y="28" width="1" height="1" fill="#2a1a0a"/>
  <rect x="18" y="28" width="1" height="1" fill="#fc5602"/>
  <rect x="19" y="28" width="1" height="1" fill="#fe8b06"/>
  <rect x="20" y="28" width="1" height="1" fill="#feb134"/>
  <rect x="21" y="28" width="1" height="1" fill="#fec142"/>
  <rect x="22" y="28" width="1" height="1" fill="#fece56"/>
  <rect x="23" y="28" width="1" height="1" fill="#fec142"/>
  <rect x="24" y="28" width="1" height="1" fill="#feb134"/>
  <rect x="25" y="28" width="1" height="1" fill="#fe8b06"/>
  <rect x="26" y="28" width="1" height="1" fill="#feac0b"/>
  <rect x="7" y="29" width="1" height="1" fill="#f8b255"/>
  <rect x="8" y="29" width="1" height="1" fill="#de6a05"/>
  <rect x="9" y="29" width="1" height="1" fill="#fd7403"/>
  <rect x="10" y="29" width="1" height="1" fill="#fe8b06"/>
  <rect x="11" y="29" width="1" height="1" fill="#040204"/>
  <rect x="12" y="29" width="1" height="1" fill="#121212"/>
  <rect x="13" y="29" width="4" height="1" fill="#040204"/>
  <rect x="17" y="29" width="1" height="1" fill="#261202"/>
  <rect x="18" y="29" width="1" height="1" fill="#040204"/>
  <rect x="19" y="29" width="1" height="1" fill="#fd7403"/>
  <rect x="20" y="29" width="1" height="1" fill="#fe9a02"/>
  <rect x="21" y="29" width="1" height="1" fill="#feb134"/>
  <rect x="22" y="29" width="1" height="1" fill="#fed776"/>
</svg>