<svg xmlns="http://www.w3.org/2000/svg" width="184" height="30" viewBox="0 0 184 30">
  <rect x="20" y="0" width="1" height="1" fill="#fdfaee"/>
  <rect x="22" y="0" width="1" height="1" fill="#fdfaee"/>
  <rect x="24" y="0" width="1" height="1" fill="#fdfaee"/>
  <rect x="26" y="0" width="1" height="1" fill="#fdfaee"/>
  <rect x="17" y="1" width="1" height="1" fill="#fdfaee"/>
  <rect x="19" y="1" width="1" height="1" fill="#fdfaee"/>
  <rect x="27" y="1" width="1" height="1" fill="#fdfaee"/>
  <rect x="29" y="1" width="1" height="1" fill="#fdfaee"/>
  <rect x="16" y="2" width="1" height="1" fill="#fdfaee"/>
  <rect x="18" y="2" width="1" height="1" fill="#fdfaee"/>
  <rect x="30" y="2" width="1" height="1" fill="#fdfaee"/>
  <rect x="17" y="3" width="1" height="1" fill="#fdfaee"/>
  <rect x="19" y="3" width="1" height="1" fill="#fdfaee"/>
  <rect x="27" y="3" width="1" height="1" fill="#fdfaee"/>
  <rect x="29" y="3" width="1" height="1" fill="#fdfaee"/>
  <rect x="20" y="4" width="1" height="1" fill="#fdfaee"/>
  <rect x="22" y="4" width="1" height="1" fill="#fdfaee"/>
  <rect x="24" y="4" width="1" height="1" fill="#fdfaee"/>
  <rect x="26" y="4" width="1" height="1" fill="#fdfaee"/>
  <rect x="10" y="6" width="1" height="1" fill="#949390"/>
  <rect x="12" y="6" width="1" height="1" fill="#949390"/>
  <rect x="22" y="6" width="1" height="1" fill="#1a2226"/>
  <rect x="24" y="6" width="1" height="1" fill="#1a2226"/>
  <rect x="34" y="6" width="1" height="1" fill="#949390"/>
  <rect x="36" y="6" width="1" height="1" fill="#949390"/>
  <rect x="9" y="7" width="1" height="1" fill="#f1e2d2"/>
  <rect x="11" y="7" width="1" height="1" fill="#ecdacb"/>
  <rect x="13" y="7" width="1" height="1" fill="#f6eada"/>
  <rect x="21" y="7" width="1" height="1" fill="#060a0b"/>
  <rect x="23" y="7" width="1" height="1" fill="#020206"/>
  <rect x="25" y="7" width="1" height="1" fill="#020206"/>
  <rect x="33" y="7" width="1" height="1" fill="#f6eada"/>
  <rect x="35" y="7" width="1" height="1" fill="#e5d5c7"/>
  <rect x="37" y="7" width="1" height="1" fill="#f1e2d2"/>
  <rect x="8" y="8" width="1" height="1" fill="#e5d5c7"/>
  <rect x="10" y="8" width="1" height="1" fill="#ecdacb"/>
  <rect x="12" y="8" width="1" height="1" fill="#ecdacb"/>
  <rect x="14" y="8" width="1" height="1" fill="#f6eada"/>
  <rect x="20" y="8" width="1" height="1" fill="#020206"/>
  <rect x="22" y="8" width="1" height="1" fill="#262626"/>
  <rect x="24" y="8" width="1" height="1" fill="#262626"/>
  <rect x="26" y="8" width="1" height="1" fill="#32423e"/>
  <rect x="32" y="8" width="1" height="1" fill="#f6eada"/>
  <rect x="34" y="8" width="1" height="1" fill="#eedece"/>
  <rect x="36" y="8" width="1" height="1" fill="#ecdacb"/>
  <rect x="38" y="8" width="1" height="1" fill="#e5d5c7"/>
  <rect x="7" y="9" width="1" height="1" fill="#ecdacb"/>
  <rect x="9" y="9" width="1" height="1" fill="#eedece"/>
  <rect x="11" y="9" width="1" height="1" fill="#eedece"/>
  <rect x="13" y="9" width="1" height="1" fill="#f1e2d2"/>
  <rect x="15" y="9" width="1" height="1" fill="#d6cec2"/>
  <rect x="19" y="9" width="1" height="1" fill="#262626"/>
  <rect x="21" y="9" width="1" height="1" fill="#cfd5da"/>
  <rect x="23" y="9" width="1" height="1" fill="#f8eedc"/>
  <rect x="25" y="9" width="1" height="1" fill="#eaeaee"/>
  <rect x="27" y="9" width="1" height="1" fill="#4e4e4e"/>
  <rect x="31" y="9" width="1" height="1" fill="#d6cec2"/>
  <rect x="33" y="9" width="1" height="1" fill="#f1e2d2"/>
  <rect x="35" y="9" width="1" height="1" fill="#eedece"/>
  <rect x="37" y="9" width="1" height="1" fill="#eedece"/>
  <rect x="39" y="9" width="1" height="1" fill="#ecdacb"/>
  <rect x="6" y="10" width="1" height="1" fill="#ecdacb"/>
  <rect x="8" y="10" width="1" height="1" fill="#f1e2d2"/>
  <rect x="10" y="10" width="1" height="1" fill="#f1e2d2"/>
  <rect x="12" y="10" width="1" height="1" fill="#f6eada"/>
  <rect x="14" y="10" width="1" height="1" fill="#f6eada"/>
  <rect x="20" y="10" width="1" height="1" fill="#d6be9e"/>
  <rect x="22" y="10" width="1" height="1" fill="#de9228"/>
  <rect x="24" y="10" width="1" height="1" fill="#deb646"/>
  <rect x="26" y="10" width="1" height="1" fill="#967256"/>
  <rect x="32" y="10" width="1" height="1" fill="#f3e6d6"/>
  <rect x="34" y="10" width="1" height="1" fill="#f6eada"/>
  <rect x="36" y="10" width="1" height="1" fill="#f1e2d2"/>
  <rect x="38" y="10" width="1" height="1" fill="#eedece"/>
  <rect x="40" y="10" width="1" height="1" fill="#ecdacb"/>
  <rect x="5" y="11" width="1" height="1" fill="#eedece"/>
  <rect x="7" y="11" width="1" height="1" fill="#f3e6d6"/>
  <rect x="9" y="11" width="1" height="1" fill="#f3e6d6"/>
  <rect x="11" y="11" width="1" height="1" fill="#f8eedc"/>
  <rect x="13" y="11" width="1" height="1" fill="#fbf5e7"/>
  <rect x="15" y="11" width="1" height="1" fill="#f6eada"/>
  <rect x="19" y="11" width="1" height="1" fill="#9e6e1e"/>
  <rect x="21" y="11" width="1" height="1" fill="#feaa26"/>
  <rect x="23" y="11" width="1" height="1" fill="#feeebe"/>
  <rect x="25" y="11" width="1" height="1" fill="#feee86"/>
  <rect x="27" y="11" width="1" height="1" fill="#5e5e16"/>
  <rect x="31" y="11" width="1" height="1" fill="#f6eada"/>
  <rect x="33" y="11" width="1" height="1" fill="#fbf5e7"/>
  <rect x="35" y="11" width="1" height="1" fill="#f8eedc"/>
  <rect x="37" y="11" width="1" height="1" fill="#f3e6d6"/>
  <rect x="39" y="11" width="1" height="1" fill="#f3e6d6"/>
  <rect x="41" y="11" width="1" height="1" fill="#eedece"/>
  <rect x="4" y="12" width="1" height="1" fill="#e5d5c7"/>
  <rect x="6" y="12" width="1" height="1" fill="#eedece"/>
  <rect x="8" y="12" width="1" height="1" fill="#f3e6d6"/>
  <rect x="10" y="12" width="1" height="1" fill="#fbf5e7"/>
  <rect x="12" y="12" width="1" height="1" fill="#fbf5e7"/>
  <rect x="14" y="12" width="1" height="1" fill="#fbf5e7"/>
  <rect x="16" y="12" width="1" height="1" fill="#eae3d7"/>
  <rect x="18" y="12" width="1" height="1" fill="#020206"/>
  <rect x="20" y="12" width="1" height="1" fill="#febe3e"/>
  <rect x="22" y="12" width="1" height="1" fill="#feca4e"/>
  <rect x="24" y="12" width="1" height="1" fill="#fed26e"/>
  <rect x="26" y="12" width="1" height="1" fill="#feee86"/>
  <rect x="28" y="12" width="1" height="1" fill="#020206"/>
  <rect x="30" y="12" width="1" height="1" fill="#eae3d7"/>
  <rect x="32" y="12" width="1" height="1" fill="#fbf5e7"/>
  <rect x="34" y="12" width="1" height="1" fill="#fbf5e7"/>
  <rect x="36" y="12" width="1" height="1" fill="#fbf5e7"/>
  <rect x="38" y="12" width="1" height="1" fill="#f3e6d6"/>
  <rect x="40" y="12" width="1" height="1" fill="#eedece"/>
  <rect x="42" y="12" width="1" height="1" fill="#ecdacb"/>
  <rect x="3" y="13" width="1" height="1" fill="#d6cec2"/>
  <rect x="5" y="13" width="1" height="1" fill="#eedece"/>
  <rect x="7" y="13" width="1" height="1" fill="#f6eada"/>
  <rect x="9" y="13" width="1" height="1" fill="#fbf5e7"/>
  <rect x="11" y="13" width="1" height="1" fill="#fdfaee"/>
  <rect x="13" y="13" width="1" height="1" fill="#fbf5e7"/>
  <rect x="15" y="13" width="1" height="1" fill="#fbf5e7"/>
  <rect x="17" y="13" width="1" height="1" fill="#020206"/>
  <rect x="19" y="13" width="1" height="1" fill="#281b09"/>
  <rect x="21" y="13" width="1" height="1" fill="#724206"/>
  <rect x="23" y="13" width="1" height="1" fill="#522a06"/>
  <rect x="25" y="13" width="1" height="1" fill="#724206"/>
  <rect x="27" y="13" width="1" height="1" fill="#0e2a16"/>
  <rect x="29" y="13" width="1" height="1" fill="#2a2e2e"/>
  <rect x="31" y="13" width="1" height="1" fill="#fbf5e7"/>
  <rect x="33" y="13" width="1" height="1" fill="#fbf5e7"/>
  <rect x="35" y="13" width="1" height="1" fill="#fdfaee"/>
  <rect x="37" y="13" width="1" height="1" fill="#fbf5e7"/>
  <rect x="39" y="13" width="1" height="1" fill="#f6eada"/>
  <rect x="41" y="13" width="1" height="1" fill="#eedece"/>
  <rect x="43" y="13" width="1" height="1" fill="#d6cec2"/>
  <rect x="4" y="14" width="1" height="1" fill="#f1e2d2"/>
  <rect x="6" y="14" width="1" height="1" fill="#f3e6d6"/>
  <rect x="8" y="14" width="1" height="1" fill="#fbf5e7"/>
  <rect x="10" y="14" width="1" height="1" fill="#fdfaee"/>
  <rect x="12" y="14" width="1" height="1" fill="#fdfaee"/>
  <rect x="14" y="14" width="1" height="1" fill="#fbf5e7"/>
  <rect x="16" y="14" width="1" height="1" fill="#020206"/>
  <rect x="18" y="14" width="1" height="1" fill="#363636"/>
  <rect x="20" y="14" width="1" height="1" fill="#020206"/>
  <rect x="22" y="14" width="1" height="1" fill="#060a0b"/>
  <rect x="24" y="14" width="1" height="1" fill="#1a2226"/>
  <rect x="26" y="14" width="1" height="1" fill="#020206"/>
  <rect x="28" y="14" width="1" height="1" fill="#363636"/>
  <rect x="30" y="14" width="1" height="1" fill="#262626"/>
  <rect x="32" y="14" width="1" height="1" fill="#f6f6f6"/>
  <rect x="34" y="14" width="1" height="1" fill="#fdfaee"/>
  <rect x="36" y="14" width="1" height="1" fill="#fdfaee"/>
  <rect x="38" y="14" width="1" height="1" fill="#fbf5e7"/>
  <rect x="40" y="14" width="1" height="1" fill="#f6eada"/>
  <rect x="42" y="14" width="1" height="1" fill="#f1e2d2"/>
  <rect x="3" y="15" width="1" height="1" fill="#eedece"/>
  <rect x="5" y="15" width="1" height="1" fill="#f6eada"/>
  <rect x="11" y="15" width="1" height="1" fill="#fdfaee"/>
  <rect x="13" y="15" width="1" height="1" fill="#fbf5e7"/>
  <rect x="15" y="15" width="1" height="1" fill="#363636"/>
  <rect x="17" y="15" width="1" height="1" fill="#020206"/>
  <rect x="19" y="15" width="1" height="1" fill="#020206"/>
  <rect x="21" y="15" width="1" height="1" fill="#7a7a7e"/>
  <rect x="23" y="15" width="1" height="1" fill="#cfd5da"/>
  <rect x="25" y="15" width="1" height="1" fill="#bcbbbd"/>
  <rect x="27" y="15" width="1" height="1" fill="#060a0b"/>
  <rect x="29" y="15" width="1" height="1" fill="#363636"/>
  <rect x="31" y="15" width="1" height="1" fill="#68686b"/>
  <rect x="33" y="15" width="1" height="1" fill="#fbf5e7"/>
  <rect x="35" y="15" width="1" height="1" fill="#fdfaee"/>
  <rect x="41" y="15" width="1" height="1" fill="#f6eada"/>
  <rect x="43" y="15" width="1" height="1" fill="#eedece"/>
  <rect x="4" y="16" width="1" height="1" fill="#f3e6d6"/>
  <rect x="14" y="16" width="1" height="1" fill="#7a7a7e"/>
  <rect x="16" y="16" width="1" height="1" fill="#1a2226"/>
  <rect x="18" y="16" width="1" height="1" fill="#020206"/>
  <rect x="20" y="16" width="1" height="1" fill="#bcbbbd"/>
  <rect x="22" y="16" width="1" height="1" fill="#020206"/>
  <rect x="24" y="16" width="1" height="1" fill="#020206"/>
  <rect x="26" y="16" width="1" height="1" fill="#dbd9db"/>
  <rect x="28" y="16" width="1" height="1" fill="#020206"/>
  <rect x="30" y="16" width="1" height="1" fill="#363636"/>
  <rect x="32" y="16" width="1" height="1" fill="#68686b"/>
  <rect x="42" y="16" width="1" height="1" fill="#f3e6d6"/>
  <rect x="44" y="16" width="1" height="1" fill="#7a7a7e"/>
  <rect x="3" y="17" width="1" height="1" fill="#f1e2d2"/>
  <rect x="15" y="17" width="1" height="1" fill="#363636"/>
  <rect x="17" y="17" width="1" height="1" fill="#060a0b"/>
  <rect x="19" y="17" width="1" height="1" fill="#020206"/>
  <rect x="21" y="17" width="1" height="1" fill="#f6f6f6"/>
  <rect x="23" y="17" width="1" height="1" fill="#4e4e4e"/>
  <rect x="25" y="17" width="1" height="1" fill="#f6f6f6"/>
  <rect x="27" y="17" width="1" height="1" fill="#020206"/>
  <rect x="29" y="17" width="1" height="1" fill="#060a0b"/>
  <rect x="31" y="17" width="1" height="1" fill="#363636"/>
  <rect x="43" y="17" width="1" height="1" fill="#eedece"/>
  <rect x="16" y="18" width="1" height="1" fill="#363636"/>
  <rect x="18" y="18" width="1" height="1" fill="#060a0b"/>
  <rect x="20" y="18" width="1" height="1" fill="#020206"/>
  <rect x="22" y="18" width="1" height="1" fill="#020206"/>
  <rect x="24" y="18" width="1" height="1" fill="#020206"/>
  <rect x="26" y="18" width="1" height="1" fill="#020206"/>
  <rect x="28" y="18" width="1" height="1" fill="#060a0b"/>
  <rect x="30" y="18" width="1" height="1" fill="#151615"/>
  <rect x="15" y="19" width="1" height="1" fill="#363636"/>
  <rect x="17" y="19" width="1" height="1" fill="#020206"/>
  <rect x="19" y="19" width="1" height="1" fill="#020206"/>
  <rect x="21" y="19" width="1" height="1" fill="#020206"/>
  <rect x="23" y="19" width="1" height="1" fill="#4e4e4e"/>
  <rect x="25" y="19" width="1" height="1" fill="#060a0b"/>
  <rect x="27" y="19" width="1" height="1" fill="#060a0b"/>
  <rect x="29" y="19" width="1" height="1" fill="#020206"/>
  <rect x="31" y="19" width="1" height="1" fill="#363636"/>
  <rect x="16" y="20" width="1" height="1" fill="#020206"/>
  <rect x="18" y="20" width="1" height="1" fill="#020206"/>
  <rect x="20" y="20" width="1" height="1" fill="#060a0b"/>
  <rect x="22" y="20" width="1" height="1" fill="#060a0b"/>
  <rect x="24" y="20" width="1" height="1" fill="#060a0b"/>
  <rect x="26" y="20" width="1" height="1" fill="#060a0b"/>
  <rect x="28" y="20" width="1" height="1" fill="#020206"/>
  <rect x="30" y="20" width="1" height="1" fill="#020206"/>
  <rect x="15" y="21" width="1" height="1" fill="#363636"/>
  <rect x="17" y="21" width="1" height="1" fill="#7a7a7e"/>
  <rect x="19" y="21" width="1" height="1" fill="#060a0b"/>
  <rect x="21" y="21" width="1" height="1" fill="#5d5b61"/>
  <rect x="23" y="21" width="1" height="1" fill="#f6fefe"/>
  <rect x="25" y="21" width="1" height="1" fill="#5d5b61"/>
  <rect x="27" y="21" width="1" height="1" fill="#060a0b"/>
  <rect x="29" y="21" width="1" height="1" fill="#363636"/>
  <rect x="31" y="21" width="1" height="1" fill="#363636"/>
  <rect x="16" y="22" width="1" height="1" fill="#020206"/>
  <rect x="18" y="22" width="1" height="1" fill="#f6fefe"/>
  <rect x="20" y="22" width="1" height="1" fill="#f6fefe"/>
  <rect x="22" y="22" width="1" height="1" fill="#f6fefe"/>
  <rect x="24" y="22" width="1" height="1" fill="#f6f6f6"/>
  <rect x="26" y="22" width="1" height="1" fill="#cccacb"/>
  <rect x="28" y="22" width="1" height="1" fill="#aaaaae"/>
  <rect x="30" y="22" width="1" height="1" fill="#020206"/>
  <rect x="17" y="23" width="1" height="1" fill="#68686b"/>
  <rect x="19" y="23" width="1" height="1" fill="#f6f6f6"/>
  <rect x="21" y="23" width="1" height="1" fill="#eaeaee"/>
  <rect x="23" y="23" width="1" height="1" fill="#eaeaee"/>
  <rect x="25" y="23" width="1" height="1" fill="#cccacb"/>
  <rect x="27" y="23" width="1" height="1" fill="#a69e96"/>
  <rect x="29" y="23" width="1" height="1" fill="#363636"/>
  <rect x="16" y="24" width="1" height="1" fill="#2a2e2e"/>
  <rect x="18" y="24" width="1" height="1" fill="#cccacb"/>
  <rect x="20" y="24" width="1" height="1" fill="#dbd9db"/>
  <rect x="22" y="24" width="1" height="1" fill="#dbd9db"/>
  <rect x="24" y="24" width="1" height="1" fill="#cccacb"/>
  <rect x="26" y="24" width="1" height="1" fill="#aaaaae"/>
  <rect x="28" y="24" width="1" height="1" fill="#7a7a7e"/>
  <rect x="30" y="24" width="1" height="1" fill="#363636"/>
  <rect x="17" y="25" width="1" height="1" fill="#281b09"/>
  <rect x="19" y="25" width="1" height="1" fill="#aaaaae"/>
  <rect x="21" y="25" width="1" height="1" fill="#bcbbbd"/>
  <rect x="23" y="25" width="1" height="1" fill="#aaaaae"/>
  <rect x="25" y="25" width="1" height="1" fill="#aaaaae"/>
  <rect x="27" y="25" width="1" height="1" fill="#949390"/>
  <rect x="29" y="25" width="1" height="1" fill="#020206"/>
  <rect x="18" y="26" width="1" height="1" fill="#724206"/>
  <rect x="20" y="26" width="1" height="1" fill="#5d5b61"/>
  <rect x="22" y="26" width="1" height="1" fill="#7a7a7e"/>
  <rect x="24" y="26" width="1" height="1" fill="#7a7a7e"/>
  <rect x="26" y="26" width="1" height="1" fill="#4e4e4e"/>
  <rect x="28" y="26" width="1" height="1" fill="#060a0b"/>
  <rect x="30" y="26" width="1" height="1" fill="#feaa26"/>
  <rect x="17" y="27" width="1" height="1" fill="#fe9606"/>
  <rect x="19" y="27" width="1" height="1" fill="#8e5606"/>
  <rect x="21" y="27" width="1" height="1" fill="#724206"/>
  <rect x="23" y="27" width="1" height="1" fill="#a69e96"/>
  <rect x="25" y="27" width="1" height="1" fill="#623606"/>
  <rect x="27" y="27" width="1" height="1" fill="#724206"/>
  <rect x="29" y="27" width="1" height="1" fill="#fe9606"/>
  <rect x="18" y="28" width="1" height="1" fill="#feaa06"/>
  <rect x="20" y="28" width="1" height="1" fill="#feaa06"/>
  <rect x="26" y="28" width="1" height="1" fill="#fe9606"/>
  <rect x="28" y="28" width="1" height="1" fill="#fe9606"/>
  <rect x="19" y="29" width="1" height="1" fill="#feb606"/>
  <rect x="21" y="29" width="1" height="1" fill="#feaa06"/>
  <rect x="27" y="29" width="1" height="1" fill="#feaa06"/>
</svg>