<svg xmlns="http://www.w3.org/2000/svg" width="240" height="30" viewBox="0 0 240 30">
  <rect x="6" y="4" width="1" height="1" fill="#ffa627"/>
  <rect x="7" y="4" width="1" height="1" fill="#ffa713"/>
  <rect x="5" y="5" width="1" height="1" fill="#ff9803"/>
  <rect x="6" y="5" width="1" height="1" fill="#ffa627"/>
  <rect x="7" y="5" width="1" height="1" fill="#fec948"/>
  <rect x="8" y="5" width="1" height="1" fill="#ffba34"/>
  <rect x="14" y="5" width="1" height="1" fill="#787878"/>
  <rect x="4" y="6" width="1" height="1" fill="#ff9803"/>
  <rect x="5" y="6" width="1" height="1" fill="#ffb821"/>
  <rect x="6" y="6" width="1" height="1" fill="#fec948"/>
  <rect x="7" y="6" width="1" height="1" fill="#f6b150"/>
  <rect x="8" y="6" width="1" height="1" fill="#f68f11"/>
  <rect x="14" y="6" width="1" height="1" fill="#080808"/>
  <rect x="15" y="6" width="1" height="1" fill="#252525"/>
  <rect x="22" y="6" width="1" height="1" fill="#ff9803"/>
  <rect x="23" y="6" width="1" height="1" fill="#ffa900"/>
  <rect x="3" y="7" width="1" height="1" fill="#ff9803"/>
  <rect x="4" y="7" width="1" height="1" fill="#ffa713"/>
  <rect x="5" y="7" width="1" height="1" fill="#ffcd56"/>
  <rect x="6" y="7" width="1" height="1" fill="#f6b150"/>
  <rect x="7" y="7" width="1" height="1" fill="#ff962a"/>
  <rect x="8" y="7" width="1" height="1" fill="#ff9912"/>
  <rect x="14" y="7" width="2" height="1" fill="#000000"/>
  <rect x="16" y="7" width="1" height="1" fill="#555555"/>
  <rect x="21" y="7" width="1" height="1" fill="#f68f11"/>
  <rect x="22" y="7" width="1" height="1" fill="#ff9803"/>
  <rect x="23" y="7" width="1" height="1" fill="#ffb715"/>
  <rect x="2" y="8" width="1" height="1" fill="#ff9803"/>
  <rect x="3" y="8" width="1" height="1" fill="#ffa900"/>
  <rect x="4" y="8" width="1" height="1" fill="#ffb715"/>
  <rect x="5" y="8" width="1" height="1" fill="#ffcd56"/>
  <rect x="6" y="8" width="1" height="1" fill="#ff962a"/>
  <rect x="7" y="8" width="2" height="1" fill="#a58439"/>
  <rect x="9" y="8" width="1" height="1" fill="#ad9452"/>
  <rect x="10" y="8" width="1" height="1" fill="#8f8f8f"/>
  <rect x="11" y="8" width="1" height="1" fill="#aaa9a9"/>
  <rect x="14" y="8" width="2" height="1" fill="#000000"/>
  <rect x="16" y="8" width="1" height="1" fill="#080808"/>
  <rect x="21" y="8" width="1" height="1" fill="#fd8801"/>
  <rect x="22" y="8" width="1" height="1" fill="#ff9803"/>
  <rect x="23" y="8" width="1" height="1" fill="#ffb715"/>
  <rect x="2" y="9" width="1" height="1" fill="#ff9803"/>
  <rect x="3" y="9" width="1" height="1" fill="#ffb715"/>
  <rect x="4" y="9" width="1" height="1" fill="#ffc832"/>
  <rect x="5" y="9" width="1" height="1" fill="#ff962a"/>
  <rect x="6" y="9" width="1" height="1" fill="#a58439"/>
  <rect x="7" y="9" width="3" height="1" fill="#fffff7"/>
  <rect x="10" y="9" width="1" height="1" fill="#dbdbdb"/>
  <rect x="11" y="9" width="1" height="1" fill="#adadb5"/>
  <rect x="12" y="9" width="1" height="1" fill="#aaa9a9"/>
  <rect x="13" y="9" width="1" height="1" fill="#8f8f8f"/>
  <rect x="14" y="9" width="1" height="1" fill="#787878"/>
  <rect x="15" y="9" width="1" height="1" fill="#343434"/>
  <rect x="16" y="9" width="1" height="1" fill="#080808"/>
  <rect x="17" y="9" width="1" height="1" fill="#464645"/>
  <rect x="21" y="9" width="1" height="1" fill="#fd8801"/>
  <rect x="22" y="9" width="1" height="1" fill="#ff9803"/>
  <rect x="23" y="9" width="1" height="1" fill="#ffa900"/>
  <rect x="24" y="9" width="1" height="1" fill="#ffcd56"/>
  <rect x="1" y="10" width="1" height="1" fill="#ff9912"/>
  <rect x="2" y="10" width="1" height="1" fill="#ffa900"/>
  <rect x="3" y="10" width="2" height="1" fill="#ff962a"/>
  <rect x="5" y="10" width="1" height="1" fill="#a58439"/>
  <rect x="6" y="10" width="8" height="1" fill="#fffff7"/>
  <rect x="14" y="10" width="1" height="1" fill="#dbdbdb"/>
  <rect x="15" y="10" width="1" height="1" fill="#cbcbcb"/>
  <rect x="16" y="10" width="1" height="1" fill="#343434"/>
  <rect x="17" y="10" width="1" height="1" fill="#252525"/>
  <rect x="18" y="10" width="1" height="1" fill="#aaa9a9"/>
  <rect x="21" y="10" width="1" height="1" fill="#fd8801"/>
  <rect x="22" y="10" width="3" height="1" fill="#ff9803"/>
  <rect x="25" y="10" width="1" height="1" fill="#ffc832"/>
  <rect x="1" y="11" width="1" height="1" fill="#f6b150"/>
  <rect x="2" y="11" width="1" height="1" fill="#cc911a"/>
  <rect x="3" y="11" width="2" height="1" fill="#a58439"/>
  <rect x="5" y="11" width="1" height="1" fill="#b5ad94"/>
  <rect x="6" y="11" width="2" height="1" fill="#b9b9ba"/>
  <rect x="8" y="11" width="1" height="1" fill="#ececec"/>
  <rect x="9" y="11" width="1" height="1" fill="#f7f7f7"/>
  <rect x="10" y="11" width="6" height="1" fill="#fffff7"/>
  <rect x="16" y="11" width="1" height="1" fill="#cbcbcb"/>
  <rect x="17" y="11" width="1" height="1" fill="#676767"/>
  <rect x="18" y="11" width="1" height="1" fill="#393942"/>
  <rect x="19" y="11" width="1" height="1" fill="#b9b9ba"/>
  <rect x="21" y="11" width="1" height="1" fill="#fd8801"/>
  <rect x="22" y="11" width="1" height="1" fill="#ff9912"/>
  <rect x="23" y="11" width="2" height="1" fill="#ffa713"/>
  <rect x="25" y="11" width="1" height="1" fill="#181818"/>
  <rect x="26" y="11" width="1" height="1" fill="#676767"/>
  <rect x="27" y="11" width="1" height="1" fill="#181818"/>
  <rect x="1" y="12" width="1" height="1" fill="#464645"/>
  <rect x="2" y="12" width="1" height="1" fill="#181000"/>
  <rect x="3" y="12" width="1" height="1" fill="#342708"/>
  <rect x="4" y="12" width="1" height="1" fill="#343434"/>
  <rect x="5" y="12" width="1" height="1" fill="#787878"/>
  <rect x="6" y="12" width="1" height="1" fill="#8f8f8f"/>
  <rect x="7" y="12" width="1" height="1" fill="#adadb5"/>
  <rect x="8" y="12" width="1" height="1" fill="#b9b9ba"/>
  <rect x="9" y="12" width="1" height="1" fill="#ced6d6"/>
  <rect x="10" y="12" width="1" height="1" fill="#dbdbdb"/>
  <rect x="11" y="12" width="5" height="1" fill="#ececec"/>
  <rect x="16" y="12" width="1" height="1" fill="#cbcbcb"/>
  <rect x="17" y="12" width="1" height="1" fill="#464645"/>
  <rect x="18" y="12" width="1" height="1" fill="#101010"/>
  <rect x="19" y="12" width="1" height="1" fill="#252525"/>
  <rect x="20" y="12" width="1" height="1" fill="#9c846b"/>
  <rect x="21" y="12" width="1" height="1" fill="#f68f11"/>
  <rect x="22" y="12" width="1" height="1" fill="#ff9912"/>
  <rect x="23" y="12" width="1" height="1" fill="#fec948"/>
  <rect x="24" y="12" width="1" height="1" fill="#8f8f8f"/>
  <rect x="25" y="12" width="1" height="1" fill="#181818"/>
  <rect x="26" y="12" width="1" height="1" fill="#f7f7f7"/>
  <rect x="27" y="12" width="1" height="1" fill="#181818"/>
  <rect x="28" y="12" width="1" height="1" fill="#343434"/>
  <rect x="0" y="13" width="1" height="1" fill="#aaa9a9"/>
  <rect x="1" y="13" width="2" height="1" fill="#000000"/>
  <rect x="3" y="13" width="1" height="1" fill="#080000"/>
  <rect x="4" y="13" width="1" height="1" fill="#181818"/>
  <rect x="5" y="13" width="1" height="1" fill="#393942"/>
  <rect x="6" y="13" width="1" height="1" fill="#676767"/>
  <rect x="7" y="13" width="2" height="1" fill="#8f8f8f"/>
  <rect x="9" y="13" width="1" height="1" fill="#aaa9a9"/>
  <rect x="10" y="13" width="1" height="1" fill="#adadb5"/>
  <rect x="11" y="13" width="4" height="1" fill="#b9b9ba"/>
  <rect x="15" y="13" width="1" height="1" fill="#aaa9a9"/>
  <rect x="16" y="13" width="1" height="1" fill="#555555"/>
  <rect x="17" y="13" width="1" height="1" fill="#080808"/>
  <rect x="18" y="13" width="2" height="1" fill="#000000"/>
  <rect x="20" y="13" width="1" height="1" fill="#101010"/>
  <rect x="21" y="13" width="1" height="1" fill="#c66b10"/>
  <rect x="22" y="13" width="1" height="1" fill="#ff9803"/>
  <rect x="23" y="13" width="1" height="1" fill="#ffa627"/>
  <rect x="24" y="13" width="1" height="1" fill="#f9ce7b"/>
  <rect x="25" y="13" width="1" height="1" fill="#f7f7f7"/>
  <rect x="26" y="13" width="1" height="1" fill="#b9b9ba"/>
  <rect x="27" y="13" width="2" height="1" fill="#080808"/>
  <rect x="29" y="13" width="1" height="1" fill="#787878"/>
  <rect x="0" y="14" width="1" height="1" fill="#555555"/>
  <rect x="1" y="14" width="3" height="1" fill="#000000"/>
  <rect x="4" y="14" width="1" height="1" fill="#080808"/>
  <rect x="5" y="14" width="1" height="1" fill="#252525"/>
  <rect x="6" y="14" width="1" height="1" fill="#343434"/>
  <rect x="7" y="14" width="1" height="1" fill="#555555"/>
  <rect x="8" y="14" width="1" height="1" fill="#676767"/>
  <rect x="9" y="14" width="2" height="1" fill="#787878"/>
  <rect x="11" y="14" width="1" height="1" fill="#8f8f8f"/>
  <rect x="12" y="14" width="2" height="1" fill="#787878"/>
  <rect x="14" y="14" width="1" height="1" fill="#555555"/>
  <rect x="15" y="14" width="1" height="1" fill="#343434"/>
  <rect x="16" y="14" width="1" height="1" fill="#101010"/>
  <rect x="17" y="14" width="4" height="1" fill="#000000"/>
  <rect x="21" y="14" width="1" height="1" fill="#4f300b"/>
  <rect x="22" y="14" width="1" height="1" fill="#fd8801"/>
  <rect x="23" y="14" width="1" height="1" fill="#ffb821"/>
  <rect x="24" y="14" width="1" height="1" fill="#debd6b"/>
  <rect x="25" y="14" width="1" height="1" fill="#8f8f8f"/>
  <rect x="26" y="14" width="1" height="1" fill="#343434"/>
  <rect x="27" y="14" width="3" height="1" fill="#000000"/>
  <rect x="0" y="15" width="1" height="1" fill="#343434"/>
  <rect x="1" y="15" width="4" height="1" fill="#000000"/>
  <rect x="5" y="15" width="1" height="1" fill="#080808"/>
  <rect x="6" y="15" width="1" height="1" fill="#101010"/>
  <rect x="7" y="15" width="2" height="1" fill="#252525"/>
  <rect x="9" y="15" width="4" height="1" fill="#343434"/>
  <rect x="13" y="15" width="1" height="1" fill="#252525"/>
  <rect x="14" y="15" width="1" height="1" fill="#101010"/>
  <rect x="15" y="15" width="1" height="1" fill="#080808"/>
  <rect x="16" y="15" width="6" height="1" fill="#000000"/>
  <rect x="22" y="15" width="2" height="1" fill="#8a5006"/>
  <rect x="24" y="15" width="1" height="1" fill="#6b6352"/>
  <rect x="25" y="15" width="1" height="1" fill="#252525"/>
  <rect x="26" y="15" width="4" height="1" fill="#000000"/>
  <rect x="0" y="16" width="1" height="1" fill="#343434"/>
  <rect x="1" y="16" width="7" height="1" fill="#000000"/>
  <rect x="8" y="16" width="4" height="1" fill="#080808"/>
  <rect x="12" y="16" width="8" height="1" fill="#000000"/>
  <rect x="20" y="16" width="1" height="1" fill="#080000"/>
  <rect x="21" y="16" width="3" height="1" fill="#000000"/>
  <rect x="24" y="16" width="1" height="1" fill="#464645"/>
  <rect x="25" y="16" width="1" height="1" fill="#555555"/>
  <rect x="26" y="16" width="3" height="1" fill="#000000"/>
  <rect x="29" y="16" width="1" height="1" fill="#787878"/>
  <rect x="0" y="17" width="1" height="1" fill="#464645"/>
  <rect x="1" y="17" width="15" height="1" fill="#000000"/>
  <rect x="16" y="17" width="1" height="1" fill="#080808"/>
  <rect x="17" y="17" width="3" height="1" fill="#000000"/>
  <rect x="20" y="17" width="1" height="1" fill="#101010"/>
  <rect x="21" y="17" width="1" height="1" fill="#252525"/>
  <rect x="22" y="17" width="2" height="1" fill="#000000"/>
  <rect x="24" y="17" width="1" height="1" fill="#101010"/>
  <rect x="25" y="17" width="1" height="1" fill="#555555"/>
  <rect x="26" y="17" width="2" height="1" fill="#000000"/>
  <rect x="28" y="17" width="1" height="1" fill="#252525"/>
  <rect x="0" y="18" width="1" height="1" fill="#9a691d"/>
  <rect x="1" y="18" width="13" height="1" fill="#000000"/>
  <rect x="14" y="18" width="1" height="1" fill="#101010"/>
  <rect x="15" y="18" width="1" height="1" fill="#464645"/>
  <rect x="16" y="18" width="1" height="1" fill="#343434"/>
  <rect x="17" y="18" width="3" height="1" fill="#000000"/>
  <rect x="20" y="18" width="1" height="1" fill="#101010"/>
  <rect x="21" y="18" width="1" height="1" fill="#252525"/>
  <rect x="22" y="18" width="3" height="1" fill="#000000"/>
  <rect x="25" y="18" width="1" height="1" fill="#080808"/>
  <rect x="26" y="18" width="1" height="1" fill="#000000"/>
  <rect x="27" y="18" width="1" height="1" fill="#252525"/>
  <rect x="0" y="19" width="1" height="1" fill="#f68f11"/>
  <rect x="1" y="19" width="1" height="1" fill="#24190d"/>
  <rect x="2" y="19" width="11" height="1" fill="#000000"/>
  <rect x="13" y="19" width="1" height="1" fill="#181818"/>
  <rect x="14" y="19" width="1" height="1" fill="#555555"/>
  <rect x="15" y="19" width="1" height="1" fill="#464645"/>
  <rect x="16" y="19" width="1" height="1" fill="#101010"/>
  <rect x="17" y="19" width="3" height="1" fill="#000000"/>
  <rect x="20" y="19" width="1" height="1" fill="#555555"/>
  <rect x="21" y="19" width="1" height="1" fill="#676767"/>
  <rect x="22" y="19" width="1" height="1" fill="#101010"/>
  <rect x="23" y="19" width="2" height="1" fill="#080808"/>
  <rect x="25" y="19" width="1" height="1" fill="#343434"/>
  <rect x="26" y="19" width="1" height="1" fill="#676767"/>
  <rect x="0" y="20" width="1" height="1" fill="#ff962a"/>
  <rect x="1" y="20" width="1" height="1" fill="#563914"/>
  <rect x="2" y="20" width="10" height="1" fill="#000000"/>
  <rect x="12" y="20" width="1" height="1" fill="#080808"/>
  <rect x="13" y="20" width="1" height="1" fill="#555555"/>
  <rect x="14" y="20" width="1" height="1" fill="#252525"/>
  <rect x="15" y="20" width="4" height="1" fill="#000000"/>
  <rect x="19" y="20" width="1" height="1" fill="#080808"/>
  <rect x="1" y="21" width="1" height="1" fill="#ff962a"/>
  <rect x="2" y="21" width="9" height="1" fill="#000000"/>
  <rect x="11" y="21" width="1" height="1" fill="#101010"/>
  <rect x="12" y="21" width="1" height="1" fill="#555555"/>
  <rect x="13" y="21" width="1" height="1" fill="#464645"/>
  <rect x="14" y="21" width="4" height="1" fill="#000000"/>
  <rect x="18" y="21" width="1" height="1" fill="#101010"/>
  <rect x="1" y="22" width="1" height="1" fill="#ff962a"/>
  <rect x="2" y="22" width="1" height="1" fill="#080000"/>
  <rect x="3" y="22" width="2" height="1" fill="#000000"/>
  <rect x="5" y="22" width="1" height="1" fill="#181000"/>
  <rect x="6" y="22" width="1" height="1" fill="#342708"/>
  <rect x="7" y="22" width="2" height="1" fill="#563914"/>
  <rect x="9" y="22" width="1" height="1" fill="#6b6352"/>
  <rect x="12" y="22" width="1" height="1" fill="#8f8f8f"/>
  <rect x="13" y="22" width="1" height="1" fill="#252525"/>
  <rect x="14" y="22" width="3" height="1" fill="#000000"/>
  <rect x="17" y="22" width="1" height="1" fill="#343434"/>
  <rect x="2" y="23" width="1" height="1" fill="#4f300b"/>
  <rect x="3" y="23" width="2" height="1" fill="#000000"/>
  <rect x="5" y="23" width="1" height="1" fill="#8a5006"/>
  <rect x="6" y="23" width="1" height="1" fill="#ffa713"/>
  <rect x="7" y="23" width="1" height="1" fill="#ffc832"/>
  <rect x="8" y="23" width="1" height="1" fill="#ffcd56"/>
  <rect x="12" y="23" width="1" height="1" fill="#787878"/>
  <rect x="13" y="23" width="1" height="1" fill="#080808"/>
  <rect x="14" y="23" width="1" height="1" fill="#000000"/>
  <rect x="15" y="23" width="1" height="1" fill="#181818"/>
  <rect x="16" y="23" width="1" height="1" fill="#8f8f8f"/>
  <rect x="3" y="24" width="1" height="1" fill="#080808"/>
  <rect x="4" y="24" width="1" height="1" fill="#080000"/>
  <rect x="5" y="24" width="1" height="1" fill="#563914"/>
  <rect x="6" y="24" width="1" height="1" fill="#ff9803"/>
  <rect x="7" y="24" width="1" height="1" fill="#ffb715"/>
  <rect x="8" y="24" width="2" height="1" fill="#ffc832"/>
  <rect x="12" y="24" width="1" height="1" fill="#787878"/>
  <rect x="13" y="24" width="2" height="1" fill="#000000"/>
  <rect x="15" y="24" width="1" height="1" fill="#787878"/>
  <rect x="4" y="25" width="1" height="1" fill="#464645"/>
  <rect x="5" y="25" width="1" height="1" fill="#9c7342"/>
  <rect x="6" y="25" width="1" height="1" fill="#fd8801"/>
  <rect x="7" y="25" width="2" height="1" fill="#ff9803"/>
  <rect x="9" y="25" width="1" height="1" fill="#ffa713"/>
  <rect x="12" y="25" width="1" height="1" fill="#787878"/>
  <rect x="13" y="25" width="2" height="1" fill="#000000"/>
  <rect x="7" y="26" width="2" height="1" fill="#fd8801"/>
  <rect x="13" y="26" width="2" height="1" fill="#787878"/>
</svg>