<svg xmlns="http://www.w3.org/2000/svg" width="240" height="30" viewBox="0 0 240 30">
  <rect x="11" y="4" width="1" height="1" fill="#ababab"/>
  <rect x="12" y="4" width="1" height="1" fill="#4e4d4d"/>
  <rect x="13" y="4" width="1" height="1" fill="#131313"/>
  <rect x="14" y="4" width="2" height="1" fill="#000000"/>
  <rect x="16" y="4" width="1" height="1" fill="#080808"/>
  <rect x="17" y="4" width="1" height="1" fill="#4e4d4d"/>
  <rect x="10" y="5" width="1" height="1" fill="#979797"/>
  <rect x="11" y="5" width="2" height="1" fill="#000000"/>
  <rect x="13" y="5" width="1" height="1" fill="#080808"/>
  <rect x="14" y="5" width="2" height="1" fill="#000000"/>
  <rect x="16" y="5" width="1" height="1" fill="#131313"/>
  <rect x="17" y="5" width="1" height="1" fill="#000000"/>
  <rect x="18" y="5" width="1" height="1" fill="#252525"/>
  <rect x="10" y="6" width="1" height="1" fill="#131313"/>
  <rect x="11" y="6" width="1" height="1" fill="#4e4d4d"/>
  <rect x="12" y="6" width="1" height="1" fill="#b9b9b9"/>
  <rect x="13" y="6" width="1" height="1" fill="#979797"/>
  <rect x="14" y="6" width="1" height="1" fill="#000000"/>
  <rect x="15" y="6" width="1" height="1" fill="#353535"/>
  <rect x="16" y="6" width="1" height="1" fill="#dadada"/>
  <rect x="17" y="6" width="1" height="1" fill="#ababab"/>
  <rect x="18" y="6" width="1" height="1" fill="#252525"/>
  <rect x="19" y="6" width="1" height="1" fill="#888888"/>
  <rect x="10" y="7" width="1" height="1" fill="#080808"/>
  <rect x="11" y="7" width="1" height="1" fill="#a5adb5"/>
  <rect x="12" y="7" width="1" height="1" fill="#b9b9b9"/>
  <rect x="13" y="7" width="1" height="1" fill="#131313"/>
  <rect x="14" y="7" width="1" height="1" fill="#563512"/>
  <rect x="15" y="7" width="1" height="1" fill="#4e4d4d"/>
  <rect x="16" y="7" width="1" height="1" fill="#353535"/>
  <rect x="17" y="7" width="1" height="1" fill="#f7ffff"/>
  <rect x="18" y="7" width="1" height="1" fill="#888888"/>
  <rect x="19" y="7" width="1" height="1" fill="#4e4d4d"/>
  <rect x="8" y="8" width="1" height="1" fill="#888888"/>
  <rect x="9" y="8" width="1" height="1" fill="#737b84"/>
  <rect x="10" y="8" width="1" height="1" fill="#080808"/>
  <rect x="11" y="8" width="1" height="1" fill="#92652e"/>
  <rect x="12" y="8" width="1" height="1" fill="#de9c21"/>
  <rect x="13" y="8" width="1" height="1" fill="#ed5600"/>
  <rect x="14" y="8" width="1" height="1" fill="#ffb267"/>
  <rect x="15" y="8" width="1" height="1" fill="#fcf1d1"/>
  <rect x="16" y="8" width="1" height="1" fill="#dec69c"/>
  <rect x="17" y="8" width="1" height="1" fill="#ffebae"/>
  <rect x="18" y="8" width="1" height="1" fill="#4e4d4d"/>
  <rect x="19" y="8" width="1" height="1" fill="#353535"/>
  <rect x="20" y="8" width="1" height="1" fill="#888888"/>
  <rect x="5" y="9" width="1" height="1" fill="#888888"/>
  <rect x="6" y="9" width="1" height="1" fill="#4e4d4d"/>
  <rect x="7" y="9" width="1" height="1" fill="#252525"/>
  <rect x="8" y="9" width="1" height="1" fill="#000000"/>
  <rect x="9" y="9" width="1" height="1" fill="#080808"/>
  <rect x="10" y="9" width="1" height="1" fill="#ad5000"/>
  <rect x="11" y="9" width="1" height="1" fill="#ff7700"/>
  <rect x="12" y="9" width="1" height="1" fill="#ed712c"/>
  <rect x="13" y="9" width="1" height="1" fill="#fab052"/>
  <rect x="14" y="9" width="1" height="1" fill="#ffda8f"/>
  <rect x="15" y="9" width="1" height="1" fill="#ffd9a8"/>
  <rect x="16" y="9" width="1" height="1" fill="#ffe797"/>
  <rect x="17" y="9" width="1" height="1" fill="#fecc57"/>
  <rect x="18" y="9" width="1" height="1" fill="#92652e"/>
  <rect x="19" y="9" width="2" height="1" fill="#000000"/>
  <rect x="21" y="9" width="1" height="1" fill="#080808"/>
  <rect x="22" y="9" width="1" height="1" fill="#312921"/>
  <rect x="23" y="9" width="1" height="1" fill="#4e4d4d"/>
  <rect x="24" y="9" width="1" height="1" fill="#979797"/>
  <rect x="3" y="10" width="1" height="1" fill="#4e4d4d"/>
  <rect x="4" y="10" width="1" height="1" fill="#131313"/>
  <rect x="5" y="10" width="4" height="1" fill="#000000"/>
  <rect x="9" y="10" width="1" height="1" fill="#0f0203"/>
  <rect x="10" y="10" width="1" height="1" fill="#ad5000"/>
  <rect x="11" y="10" width="2" height="1" fill="#f36a08"/>
  <rect x="13" y="10" width="1" height="1" fill="#ed712c"/>
  <rect x="14" y="10" width="1" height="1" fill="#f36a08"/>
  <rect x="15" y="10" width="1" height="1" fill="#ff9213"/>
  <rect x="16" y="10" width="1" height="1" fill="#fd9228"/>
  <rect x="17" y="10" width="1" height="1" fill="#ffbd46"/>
  <rect x="18" y="10" width="1" height="1" fill="#b5944a"/>
  <rect x="19" y="10" width="1" height="1" fill="#080808"/>
  <rect x="20" y="10" width="5" height="1" fill="#000000"/>
  <rect x="25" y="10" width="1" height="1" fill="#353535"/>
  <rect x="26" y="10" width="1" height="1" fill="#888888"/>
  <rect x="1" y="11" width="1" height="1" fill="#6e6e6e"/>
  <rect x="2" y="11" width="9" height="1" fill="#000000"/>
  <rect x="11" y="11" width="2" height="1" fill="#291808"/>
  <rect x="13" y="11" width="2" height="1" fill="#0f0203"/>
  <rect x="15" y="11" width="1" height="1" fill="#131313"/>
  <rect x="16" y="11" width="2" height="1" fill="#0f0203"/>
  <rect x="18" y="11" width="9" height="1" fill="#000000"/>
  <rect x="27" y="11" width="1" height="1" fill="#4e4d4d"/>
  <rect x="28" y="11" width="1" height="1" fill="#979797"/>
  <rect x="1" y="12" width="1" height="1" fill="#252525"/>
  <rect x="2" y="12" width="1" height="1" fill="#4e4d4d"/>
  <rect x="3" y="12" width="1" height="1" fill="#6e6e6e"/>
  <rect x="6" y="12" width="1" height="1" fill="#888888"/>
  <rect x="7" y="12" width="1" height="1" fill="#131313"/>
  <rect x="8" y="12" width="5" height="1" fill="#000000"/>
  <rect x="13" y="12" width="1" height="1" fill="#131313"/>
  <rect x="14" y="12" width="2" height="1" fill="#353535"/>
  <rect x="16" y="12" width="1" height="1" fill="#131313"/>
  <rect x="17" y="12" width="1" height="1" fill="#080808"/>
  <rect x="18" y="12" width="4" height="1" fill="#000000"/>
  <rect x="22" y="12" width="1" height="1" fill="#131313"/>
  <rect x="25" y="12" width="1" height="1" fill="#6e6e6e"/>
  <rect x="26" y="12" width="1" height="1" fill="#4e4d4d"/>
  <rect x="27" y="12" width="1" height="1" fill="#000000"/>
  <rect x="28" y="12" width="1" height="1" fill="#252525"/>
  <rect x="7" y="13" width="1" height="1" fill="#6e6e6e"/>
  <rect x="8" y="13" width="3" height="1" fill="#000000"/>
  <rect x="11" y="13" width="1" height="1" fill="#131313"/>
  <rect x="12" y="13" width="1" height="1" fill="#979797"/>
  <rect x="13" y="13" width="1" height="1" fill="#ececec"/>
  <rect x="14" y="13" width="1" height="1" fill="#fff7ed"/>
  <rect x="15" y="13" width="1" height="1" fill="#ececec"/>
  <rect x="16" y="13" width="1" height="1" fill="#ababab"/>
  <rect x="17" y="13" width="1" height="1" fill="#6e6e6e"/>
  <rect x="18" y="13" width="1" height="1" fill="#131313"/>
  <rect x="19" y="13" width="3" height="1" fill="#000000"/>
  <rect x="22" y="13" width="1" height="1" fill="#6e6e6e"/>
  <rect x="7" y="14" width="1" height="1" fill="#252525"/>
  <rect x="8" y="14" width="2" height="1" fill="#000000"/>
  <rect x="10" y="14" width="1" height="1" fill="#080808"/>
  <rect x="11" y="14" width="1" height="1" fill="#ababab"/>
  <rect x="12" y="14" width="2" height="1" fill="#f7ffff"/>
  <rect x="14" y="14" width="1" height="1" fill="#f7f7f7"/>
  <rect x="15" y="14" width="1" height="1" fill="#ececec"/>
  <rect x="16" y="14" width="1" height="1" fill="#cacaca"/>
  <rect x="17" y="14" width="1" height="1" fill="#b9b9b9"/>
  <rect x="18" y="14" width="1" height="1" fill="#4e4d4d"/>
  <rect x="19" y="14" width="1" height="1" fill="#131313"/>
  <rect x="20" y="14" width="2" height="1" fill="#000000"/>
  <rect x="22" y="14" width="1" height="1" fill="#353535"/>
  <rect x="6" y="15" width="1" height="1" fill="#888888"/>
  <rect x="7" y="15" width="3" height="1" fill="#000000"/>
  <rect x="10" y="15" width="1" height="1" fill="#6e6e6e"/>
  <rect x="11" y="15" width="3" height="1" fill="#f7ffff"/>
  <rect x="14" y="15" width="1" height="1" fill="#f7f7f7"/>
  <rect x="15" y="15" width="1" height="1" fill="#dadada"/>
  <rect x="16" y="15" width="2" height="1" fill="#cacaca"/>
  <rect x="18" y="15" width="1" height="1" fill="#ababab"/>
  <rect x="19" y="15" width="1" height="1" fill="#252525"/>
  <rect x="20" y="15" width="1" height="1" fill="#080808"/>
  <rect x="21" y="15" width="2" height="1" fill="#000000"/>
  <rect x="6" y="16" width="1" height="1" fill="#4e4d4d"/>
  <rect x="7" y="16" width="2" height="1" fill="#000000"/>
  <rect x="9" y="16" width="1" height="1" fill="#131313"/>
  <rect x="10" y="16" width="1" height="1" fill="#b9b9b9"/>
  <rect x="11" y="16" width="4" height="1" fill="#f7ffff"/>
  <rect x="15" y="16" width="1" height="1" fill="#ececec"/>
  <rect x="16" y="16" width="1" height="1" fill="#cacaca"/>
  <rect x="17" y="16" width="2" height="1" fill="#b9b9b9"/>
  <rect x="19" y="16" width="1" height="1" fill="#6e6e6e"/>
  <rect x="20" y="16" width="1" height="1" fill="#131313"/>
  <rect x="21" y="16" width="2" height="1" fill="#000000"/>
  <rect x="23" y="16" width="1" height="1" fill="#888888"/>
  <rect x="6" y="17" width="1" height="1" fill="#131313"/>
  <rect x="7" y="17" width="2" height="1" fill="#000000"/>
  <rect x="9" y="17" width="1" height="1" fill="#353535"/>
  <rect x="10" y="17" width="1" height="1" fill="#dadada"/>
  <rect x="11" y="17" width="4" height="1" fill="#f7ffff"/>
  <rect x="15" y="17" width="1" height="1" fill="#f7f7f7"/>
  <rect x="16" y="17" width="1" height="1" fill="#dadada"/>
  <rect x="17" y="17" width="2" height="1" fill="#b9b9b9"/>
  <rect x="19" y="17" width="1" height="1" fill="#888888"/>
  <rect x="20" y="17" width="1" height="1" fill="#252525"/>
  <rect x="21" y="17" width="1" height="1" fill="#080808"/>
  <rect x="22" y="17" width="1" height="1" fill="#000000"/>
  <rect x="23" y="17" width="1" height="1" fill="#6e6e6e"/>
  <rect x="6" y="18" width="1" height="1" fill="#080808"/>
  <rect x="7" y="18" width="2" height="1" fill="#000000"/>
  <rect x="9" y="18" width="1" height="1" fill="#6e6e6e"/>
  <rect x="10" y="18" width="6" height="1" fill="#f7ffff"/>
  <rect x="16" y="18" width="1" height="1" fill="#dadada"/>
  <rect x="17" y="18" width="1" height="1" fill="#cacaca"/>
  <rect x="18" y="18" width="1" height="1" fill="#b9b9b9"/>
  <rect x="19" y="18" width="1" height="1" fill="#979797"/>
  <rect x="20" y="18" width="1" height="1" fill="#353535"/>
  <rect x="21" y="18" width="1" height="1" fill="#080808"/>
  <rect x="22" y="18" width="1" height="1" fill="#000000"/>
  <rect x="23" y="18" width="1" height="1" fill="#4e4d4d"/>
  <rect x="6" y="19" width="3" height="1" fill="#000000"/>
  <rect x="9" y="19" width="1" height="1" fill="#888888"/>
  <rect x="10" y="19" width="6" height="1" fill="#f7ffff"/>
  <rect x="16" y="19" width="1" height="1" fill="#ececec"/>
  <rect x="17" y="19" width="2" height="1" fill="#b9b9b9"/>
  <rect x="19" y="19" width="1" height="1" fill="#979797"/>
  <rect x="20" y="19" width="1" height="1" fill="#4e4d4d"/>
  <rect x="21" y="19" width="1" height="1" fill="#131313"/>
  <rect x="22" y="19" width="1" height="1" fill="#000000"/>
  <rect x="23" y="19" width="1" height="1" fill="#252525"/>
  <rect x="6" y="20" width="2" height="1" fill="#000000"/>
  <rect x="8" y="20" width="1" height="1" fill="#131313"/>
  <rect x="9" y="20" width="1" height="1" fill="#b9b9b9"/>
  <rect x="10" y="20" width="6" height="1" fill="#f7ffff"/>
  <rect x="16" y="20" width="1" height="1" fill="#dadada"/>
  <rect x="17" y="20" width="2" height="1" fill="#b9b9b9"/>
  <rect x="19" y="20" width="1" height="1" fill="#ababab"/>
  <rect x="20" y="20" width="1" height="1" fill="#4e4d4d"/>
  <rect x="21" y="20" width="1" height="1" fill="#131313"/>
  <rect x="22" y="20" width="1" height="1" fill="#000000"/>
  <rect x="23" y="20" width="1" height="1" fill="#353535"/>
  <rect x="5" y="21" width="1" height="1" fill="#dec69c"/>
  <rect x="6" y="21" width="1" height="1" fill="#131313"/>
  <rect x="7" y="21" width="1" height="1" fill="#000000"/>
  <rect x="8" y="21" width="1" height="1" fill="#080808"/>
  <rect x="9" y="21" width="1" height="1" fill="#b9b9b9"/>
  <rect x="10" y="21" width="5" height="1" fill="#f7ffff"/>
  <rect x="15" y="21" width="1" height="1" fill="#f7f7f7"/>
  <rect x="16" y="21" width="1" height="1" fill="#dadada"/>
  <rect x="17" y="21" width="2" height="1" fill="#b9b9b9"/>
  <rect x="19" y="21" width="1" height="1" fill="#ababab"/>
  <rect x="20" y="21" width="1" height="1" fill="#4e4d4d"/>
  <rect x="21" y="21" width="1" height="1" fill="#080808"/>
  <rect x="22" y="21" width="1" height="1" fill="#000000"/>
  <rect x="23" y="21" width="1" height="1" fill="#4e4d4d"/>
  <rect x="4" y="22" width="1" height="1" fill="#fecc57"/>
  <rect x="5" y="22" width="1" height="1" fill="#ffc642"/>
  <rect x="6" y="22" width="1" height="1" fill="#de9c21"/>
  <rect x="7" y="22" width="1" height="1" fill="#ad5000"/>
  <rect x="8" y="22" width="1" height="1" fill="#563512"/>
  <rect x="9" y="22" width="1" height="1" fill="#ababab"/>
  <rect x="10" y="22" width="3" height="1" fill="#f7ffff"/>
  <rect x="13" y="22" width="2" height="1" fill="#f7f7f7"/>
  <rect x="15" y="22" width="1" height="1" fill="#dadada"/>
  <rect x="16" y="22" width="1" height="1" fill="#cacaca"/>
  <rect x="17" y="22" width="1" height="1" fill="#ababab"/>
  <rect x="18" y="22" width="2" height="1" fill="#b9b9b9"/>
  <rect x="20" y="22" width="1" height="1" fill="#4e4d4d"/>
  <rect x="21" y="22" width="1" height="1" fill="#563512"/>
  <rect x="22" y="22" width="1" height="1" fill="#ad5000"/>
  <rect x="23" y="22" width="1" height="1" fill="#ff7700"/>
  <rect x="24" y="22" width="1" height="1" fill="#ff9902"/>
  <rect x="25" y="22" width="1" height="1" fill="#ffb130"/>
  <rect x="3" y="23" width="1" height="1" fill="#fecc57"/>
  <rect x="4" y="23" width="1" height="1" fill="#fdd672"/>
  <rect x="5" y="23" width="1" height="1" fill="#ffb130"/>
  <rect x="6" y="23" width="1" height="1" fill="#ff9902"/>
  <rect x="7" y="23" width="1" height="1" fill="#ffb130"/>
  <rect x="8" y="23" width="2" height="1" fill="#fecc57"/>
  <rect x="10" y="23" width="1" height="1" fill="#fff7ed"/>
  <rect x="11" y="23" width="1" height="1" fill="#f7ffff"/>
  <rect x="12" y="23" width="1" height="1" fill="#f7f7f7"/>
  <rect x="13" y="23" width="1" height="1" fill="#ececec"/>
  <rect x="14" y="23" width="2" height="1" fill="#cacaca"/>
  <rect x="16" y="23" width="1" height="1" fill="#b9b9b9"/>
  <rect x="17" y="23" width="1" height="1" fill="#ababab"/>
  <rect x="18" y="23" width="1" height="1" fill="#b9b9b9"/>
  <rect x="19" y="23" width="1" height="1" fill="#ababab"/>
  <rect x="20" y="23" width="1" height="1" fill="#f36a08"/>
  <rect x="21" y="23" width="1" height="1" fill="#ff7700"/>
  <rect x="22" y="23" width="2" height="1" fill="#ff9902"/>
  <rect x="24" y="23" width="1" height="1" fill="#ff8903"/>
  <rect x="25" y="23" width="1" height="1" fill="#fab052"/>
  <rect x="26" y="23" width="1" height="1" fill="#ffda8f"/>
  <rect x="3" y="24" width="1" height="1" fill="#fecc57"/>
  <rect x="4" y="24" width="1" height="1" fill="#fab052"/>
  <rect x="5" y="24" width="2" height="1" fill="#ff8903"/>
  <rect x="7" y="24" width="1" height="1" fill="#ff9902"/>
  <rect x="8" y="24" width="1" height="1" fill="#ffc642"/>
  <rect x="9" y="24" width="1" height="1" fill="#fdd672"/>
  <rect x="10" y="24" width="1" height="1" fill="#ffcc68"/>
  <rect x="11" y="24" width="1" height="1" fill="#fff7ed"/>
  <rect x="12" y="24" width="1" height="1" fill="#f7f7f7"/>
  <rect x="13" y="24" width="1" height="1" fill="#dadada"/>
  <rect x="14" y="24" width="1" height="1" fill="#cacaca"/>
  <rect x="15" y="24" width="4" height="1" fill="#b9b9b9"/>
  <rect x="19" y="24" width="1" height="1" fill="#f36a08"/>
  <rect x="20" y="24" width="1" height="1" fill="#ff8903"/>
  <rect x="21" y="24" width="1" height="1" fill="#ffaf04"/>
  <rect x="22" y="24" width="1" height="1" fill="#ffaa12"/>
  <rect x="23" y="24" width="1" height="1" fill="#ff9902"/>
  <rect x="24" y="24" width="1" height="1" fill="#ff7700"/>
  <rect x="25" y="24" width="1" height="1" fill="#ffb130"/>
  <rect x="26" y="24" width="1" height="1" fill="#ffda8f"/>
  <rect x="2" y="25" width="1" height="1" fill="#ffe797"/>
  <rect x="3" y="25" width="1" height="1" fill="#ffcc68"/>
  <rect x="4" y="25" width="1" height="1" fill="#ffb130"/>
  <rect x="5" y="25" width="1" height="1" fill="#ff5500"/>
  <rect x="6" y="25" width="1" height="1" fill="#ff7700"/>
  <rect x="7" y="25" width="1" height="1" fill="#ff9902"/>
  <rect x="8" y="25" width="1" height="1" fill="#ffaa12"/>
  <rect x="9" y="25" width="1" height="1" fill="#fecc57"/>
  <rect x="10" y="25" width="1" height="1" fill="#ffcc68"/>
  <rect x="11" y="25" width="1" height="1" fill="#fecc57"/>
  <rect x="12" y="25" width="3" height="1" fill="#ababab"/>
  <rect x="15" y="25" width="1" height="1" fill="#a5adb5"/>
  <rect x="16" y="25" width="1" height="1" fill="#979797"/>
  <rect x="17" y="25" width="1" height="1" fill="#a5adb5"/>
  <rect x="18" y="25" width="1" height="1" fill="#ed712c"/>
  <rect x="19" y="25" width="1" height="1" fill="#ff7700"/>
  <rect x="20" y="25" width="3" height="1" fill="#ffaf04"/>
  <rect x="23" y="25" width="1" height="1" fill="#ff9902"/>
  <rect x="24" y="25" width="1" height="1" fill="#ff7700"/>
  <rect x="25" y="25" width="1" height="1" fill="#ff9213"/>
  <rect x="26" y="25" width="1" height="1" fill="#fdd672"/>
  <rect x="27" y="25" width="1" height="1" fill="#ffebae"/>
  <rect x="2" y="26" width="1" height="1" fill="#ffda8f"/>
  <rect x="3" y="26" width="1" height="1" fill="#ffbd46"/>
  <rect x="4" y="26" width="1" height="1" fill="#ff8903"/>
  <rect x="5" y="26" width="2" height="1" fill="#ff5500"/>
  <rect x="7" y="26" width="1" height="1" fill="#ff7700"/>
  <rect x="8" y="26" width="1" height="1" fill="#ff9902"/>
  <rect x="9" y="26" width="1" height="1" fill="#ffaa12"/>
  <rect x="10" y="26" width="1" height="1" fill="#ffda8f"/>
  <rect x="11" y="26" width="1" height="1" fill="#fecc57"/>
  <rect x="12" y="26" width="1" height="1" fill="#291808"/>
  <rect x="13" y="26" width="1" height="1" fill="#353535"/>
  <rect x="14" y="26" width="4" height="1" fill="#4e4d4d"/>
  <rect x="18" y="26" width="1" height="1" fill="#ed5600"/>
  <rect x="19" y="26" width="1" height="1" fill="#ff9902"/>
  <rect x="20" y="26" width="2" height="1" fill="#ffaf04"/>
  <rect x="22" y="26" width="2" height="1" fill="#ffb130"/>
  <rect x="24" y="26" width="1" height="1" fill="#ff8903"/>
  <rect x="25" y="26" width="1" height="1" fill="#ff7700"/>
  <rect x="26" y="26" width="1" height="1" fill="#ffb130"/>
  <rect x="27" y="26" width="1" height="1" fill="#ffe797"/>
  <rect x="3" y="27" width="1" height="1" fill="#ff9213"/>
  <rect x="4" y="27" width="1" height="1" fill="#ff8903"/>
  <rect x="5" y="27" width="1" height="1" fill="#fd9228"/>
  <rect x="6" y="27" width="2" height="1" fill="#ff5500"/>
  <rect x="8" y="27" width="1" height="1" fill="#ff7700"/>
  <rect x="9" y="27" width="1" height="1" fill="#ff9902"/>
  <rect x="10" y="27" width="1" height="1" fill="#ffbd46"/>
  <rect x="11" y="27" width="1" height="1" fill="#fab052"/>
  <rect x="12" y="27" width="1" height="1" fill="#291808"/>
  <rect x="13" y="27" width="1" height="1" fill="#080808"/>
  <rect x="14" y="27" width="1" height="1" fill="#131313"/>
  <rect x="15" y="27" width="1" height="1" fill="#252525"/>
  <rect x="16" y="27" width="1" height="1" fill="#131313"/>
  <rect x="17" y="27" width="1" height="1" fill="#291808"/>
  <rect x="18" y="27" width="1" height="1" fill="#ff5500"/>
  <rect x="19" y="27" width="1" height="1" fill="#ff8903"/>
  <rect x="20" y="27" width="1" height="1" fill="#ffb130"/>
  <rect x="21" y="27" width="1" height="1" fill="#ffc639"/>
  <rect x="22" y="27" width="1" height="1" fill="#fecc57"/>
  <rect x="23" y="27" width="1" height="1" fill="#ffbd46"/>
  <rect x="24" y="27" width="1" height="1" fill="#ffb130"/>
  <rect x="25" y="27" width="1" height="1" fill="#ff8903"/>
  <rect x="26" y="27" width="1" height="1" fill="#ffaa12"/>
  <rect x="7" y="28" width="1" height="1" fill="#fab052"/>
  <rect x="8" y="28" width="1" height="1" fill="#f36a08"/>
  <rect x="9" y="28" width="1" height="1" fill="#ff7700"/>
  <rect x="10" y="28" width="1" height="1" fill="#ff8903"/>
  <rect x="11" y="28" width="1" height="1" fill="#000000"/>
  <rect x="12" y="28" width="1" height="1" fill="#131313"/>
  <rect x="13" y="28" width="4" height="1" fill="#000000"/>
  <rect x="17" y="28" width="1" height="1" fill="#291808"/>
  <rect x="18" y="28" width="1" height="1" fill="#000000"/>
  <rect x="19" y="28" width="1" height="1" fill="#ff7700"/>
  <rect x="20" y="28" width="1" height="1" fill="#ff9902"/>
  <rect x="21" y="28" width="1" height="1" fill="#ffb130"/>
  <rect x="22" y="28" width="1" height="1" fill="#fdd672"/>
</svg>