<svg xmlns="http://www.w3.org/2000/svg" viewBox="0 0 100 100">
<rect x="30" y="-3" width="40" height="3.2" rx="1.2" fill="#5b9bd5"/><rect x="47" y="-6" width="6" height="5" fill="#2b6cb0"/><path d="M33 14 C33 4 67 4 67 14 Z" fill="#2b6cb0"/><rect x="31" y="12" width="38" height="4" rx="2" fill="#5b9bd5"/>
<g transform="rotate(-8 37 95)"><ellipse cx="37" cy="95" rx="10" ry="5" fill="#f7a70b" stroke="#d4870a" stroke-width="1"/></g><g transform="rotate(8 63 95)"><ellipse cx="63" cy="95" rx="10" ry="5" fill="#f7a70b" stroke="#d4870a" stroke-width="1"/></g>
<path d="M50 8 C31 8 21 27 21 52 C21 80 33 94 50 94 C67 94 79 80 79 52 C79 27 69 8 50 8 Z" fill="#1b1b1b"/>
<path d="M22 44 C12 50 11 74 17 85 C21 89 26 83 26 74 C26 62 27 52 29 46 Z" fill="#1b1b1b"/><path d="M78 44 C88 50 89 74 83 85 C79 89 74 83 74 74 C74 62 73 52 71 46 Z" fill="#1b1b1b"/>
<path d="M50 40 C37 40 30 55 30 72 C30 87 39 92 50 92 C61 92 70 87 70 72 C70 55 63 40 50 40 Z" fill="#f4f4f4"/>
<ellipse cx="42" cy="33" rx="6" ry="8" fill="#fff"/><ellipse cx="42.0" cy="35" rx="2.6" ry="3.4" fill="#1b1b1b"/>
<ellipse cx="58" cy="33" rx="6" ry="8" fill="#fff"/><ellipse cx="58.0" cy="35" rx="2.6" ry="3.4" fill="#1b1b1b"/>
<path d="M50 35 C44 35 40 40 40 44 C40 47 45 49 50 49 C55 49 60 47 60 44 C60 40 56 35 50 35 Z" fill="#f7a70b" stroke="#d4870a" stroke-width="0.8"/><path d="M40 44 C46 47 54 47 60 44" fill="none" stroke="#d4870a" stroke-width="1.1"/>
<path d="M32 38 C42 46 58 46 68 38 L68 44 C58 51 42 51 32 44 Z" fill="#1f7a4d"/><path d="M62 44 L70 60 L64 61 L58 46 Z" fill="#1f7a4d"/>
</svg>
