<svg xmlns="http://www.w3.org/2000/svg" width="240" height="30" viewBox="0 0 240 30">
  <rect x="8" y="2" width="3" height="1" fill="#1a6abc"/>
  <rect x="8" y="3" width="6" height="1" fill="#1a6abc"/>
  <rect x="14" y="3" width="1" height="1" fill="#6a9ed4"/>
  <rect x="15" y="3" width="6" height="1" fill="#1a6abc"/>
  <rect x="14" y="4" width="1" height="1" fill="#1a6abc"/>
  <rect x="18" y="4" width="3" height="1" fill="#1a6abc"/>
  <rect x="12" y="5" width="1" height="1" fill="#4e4e4c"/>
  <rect x="13" y="5" width="2" height="1" fill="#124254"/>
  <rect x="15" y="5" width="1" height="1" fill="#262624"/>
  <rect x="16" y="5" width="1" height="1" fill="#666664"/>
  <rect x="11" y="6" width="3" height="1" fill="#070a09"/>
  <rect x="14" y="6" width="2" height="1" fill="#020204"/>
  <rect x="16" y="6" width="1" height="1" fill="#262624"/>
  <rect x="17" y="6" width="1" height="1" fill="#2a2e2c"/>
  <rect x="10" y="7" width="1" height="1" fill="#070a09"/>
  <rect x="11" y="7" width="2" height="1" fill="#020204"/>
  <rect x="13" y="7" width="2" height="1" fill="#070a09"/>
  <rect x="15" y="7" width="2" height="1" fill="#020204"/>
  <rect x="17" y="7" width="1" height="1" fill="#4e4e4c"/>
  <rect x="18" y="7" width="1" height="1" fill="#aa6eac"/>
  <rect x="10" y="8" width="1" height="1" fill="#262624"/>
  <rect x="11" y="8" width="1" height="1" fill="#f6fefc"/>
  <rect x="12" y="8" width="1" height="1" fill="#ced6dc"/>
  <rect x="13" y="8" width="1" height="1" fill="#262624"/>
  <rect x="14" y="8" width="1" height="1" fill="#f6eecc"/>
  <rect x="15" y="8" width="1" height="1" fill="#1a2224"/>
  <rect x="16" y="8" width="1" height="1" fill="#eaeaed"/>
  <rect x="17" y="8" width="1" height="1" fill="#929294"/>
  <rect x="18" y="8" width="1" height="1" fill="#4e4e4c"/>
  <rect x="10" y="9" width="1" height="1" fill="#262624"/>
  <rect x="11" y="9" width="1" height="1" fill="#d6be9c"/>
  <rect x="12" y="9" width="1" height="1" fill="#f6be74"/>
  <rect x="13" y="9" width="1" height="1" fill="#de962c"/>
  <rect x="14" y="9" width="1" height="1" fill="#feda94"/>
  <rect x="15" y="9" width="1" height="1" fill="#deb644"/>
  <rect x="16" y="9" width="1" height="1" fill="#fed26c"/>
  <rect x="17" y="9" width="1" height="1" fill="#9e6e1c"/>
  <rect x="18" y="9" width="1" height="1" fill="#4e4e4c"/>
  <rect x="9" y="10" width="1" height="1" fill="#028644"/>
  <rect x="10" y="10" width="1" height="1" fill="#9e6e1c"/>
  <rect x="11" y="10" width="1" height="1" fill="#fe8a04"/>
  <rect x="12" y="10" width="1" height="1" fill="#feaa24"/>
  <rect x="13" y="10" width="1" height="1" fill="#fed26c"/>
  <rect x="14" y="10" width="1" height="1" fill="#feeebc"/>
  <rect x="15" y="10" width="1" height="1" fill="#f6eecc"/>
  <rect x="16" y="10" width="1" height="1" fill="#feda94"/>
  <rect x="17" y="10" width="1" height="1" fill="#feca4c"/>
  <rect x="18" y="10" width="1" height="1" fill="#5e5e14"/>
  <rect x="19" y="10" width="1" height="1" fill="#028644"/>
  <rect x="8" y="11" width="1" height="1" fill="#0e4e2c"/>
  <rect x="9" y="11" width="1" height="1" fill="#02da6c"/>
  <rect x="10" y="11" width="1" height="1" fill="#de8614"/>
  <rect x="11" y="11" width="1" height="1" fill="#febe3c"/>
  <rect x="12" y="11" width="3" height="1" fill="#feca4c"/>
  <rect x="15" y="11" width="1" height="1" fill="#fed26c"/>
  <rect x="16" y="11" width="1" height="1" fill="#feda94"/>
  <rect x="17" y="11" width="1" height="1" fill="#feee84"/>
  <rect x="18" y="11" width="1" height="1" fill="#7a8624"/>
  <rect x="19" y="11" width="1" height="1" fill="#02da6c"/>
  <rect x="20" y="11" width="1" height="1" fill="#5a625c"/>
  <rect x="7" y="12" width="1" height="1" fill="#070a09"/>
  <rect x="8" y="12" width="1" height="1" fill="#024624"/>
  <rect x="9" y="12" width="1" height="1" fill="#028644"/>
  <rect x="10" y="12" width="1" height="1" fill="#2a1a04"/>
  <rect x="11" y="12" width="1" height="1" fill="#623604"/>
  <rect x="12" y="12" width="1" height="1" fill="#724204"/>
  <rect x="13" y="12" width="1" height="1" fill="#623604"/>
  <rect x="14" y="12" width="1" height="1" fill="#522a04"/>
  <rect x="15" y="12" width="1" height="1" fill="#623604"/>
  <rect x="16" y="12" width="1" height="1" fill="#724204"/>
  <rect x="17" y="12" width="1" height="1" fill="#623604"/>
  <rect x="18" y="12" width="1" height="1" fill="#0e2a14"/>
  <rect x="19" y="12" width="1" height="1" fill="#028644"/>
  <rect x="20" y="12" width="1" height="1" fill="#2a2e2c"/>
  <rect x="21" y="12" width="1" height="1" fill="#7a7a7c"/>
  <rect x="6" y="13" width="1" height="1" fill="#7a7a7c"/>
  <rect x="7" y="13" width="1" height="1" fill="#020204"/>
  <rect x="8" y="13" width="1" height="1" fill="#0e4e2c"/>
  <rect x="9" y="13" width="1" height="1" fill="#028644"/>
  <rect x="10" y="13" width="3" height="1" fill="#020204"/>
  <rect x="13" y="13" width="1" height="1" fill="#061214"/>
  <rect x="14" y="13" width="1" height="1" fill="#2a2e2c"/>
  <rect x="15" y="13" width="1" height="1" fill="#1a2224"/>
  <rect x="16" y="13" width="1" height="1" fill="#061214"/>
  <rect x="17" y="13" width="1" height="1" fill="#020204"/>
  <rect x="18" y="13" width="1" height="1" fill="#070a09"/>
  <rect x="19" y="13" width="1" height="1" fill="#066e34"/>
  <rect x="20" y="13" width="1" height="1" fill="#32423c"/>
  <rect x="21" y="13" width="1" height="1" fill="#262624"/>
  <rect x="6" y="14" width="1" height="1" fill="#020204"/>
  <rect x="7" y="14" width="1" height="1" fill="#161614"/>
  <rect x="8" y="14" width="1" height="1" fill="#066e34"/>
  <rect x="9" y="14" width="1" height="1" fill="#0e4e2c"/>
  <rect x="10" y="14" width="1" height="1" fill="#020204"/>
  <rect x="11" y="14" width="1" height="1" fill="#2a2e2c"/>
  <rect x="12" y="14" width="1" height="1" fill="#7a7a7c"/>
  <rect x="13" y="14" width="1" height="1" fill="#bababc"/>
  <rect x="14" y="14" width="1" height="1" fill="#dadadc"/>
  <rect x="15" y="14" width="1" height="1" fill="#cacacc"/>
  <rect x="16" y="14" width="1" height="1" fill="#bababc"/>
  <rect x="17" y="14" width="1" height="1" fill="#5a625c"/>
  <rect x="18" y="14" width="1" height="1" fill="#070a09"/>
  <rect x="19" y="14" width="1" height="1" fill="#066e34"/>
  <rect x="20" y="14" width="1" height="1" fill="#0e4e2c"/>
  <rect x="21" y="14" width="1" height="1" fill="#363634"/>
  <rect x="22" y="14" width="1" height="1" fill="#666664"/>
  <rect x="5" y="15" width="1" height="1" fill="#7a7a7c"/>
  <rect x="6" y="15" width="1" height="1" fill="#020204"/>
  <rect x="7" y="15" width="1" height="1" fill="#2a2e2c"/>
  <rect x="8" y="15" width="1" height="1" fill="#0e4e2c"/>
  <rect x="9" y="15" width="1" height="1" fill="#0e2a14"/>
  <rect x="10" y="15" width="1" height="1" fill="#5a625c"/>
  <rect x="11" y="15" width="1" height="1" fill="#bababc"/>
  <rect x="12" y="15" width="1" height="1" fill="#f6f6f4"/>
  <rect x="13" y="15" width="4" height="1" fill="#f6fefc"/>
  <rect x="17" y="15" width="1" height="1" fill="#dadadc"/>
  <rect x="18" y="15" width="1" height="1" fill="#5c5a62"/>
  <rect x="19" y="15" width="2" height="1" fill="#024624"/>
  <rect x="21" y="15" width="1" height="1" fill="#2a2e2c"/>
  <rect x="22" y="15" width="1" height="1" fill="#262624"/>
  <rect x="23" y="15" width="1" height="1" fill="#666664"/>
  <rect x="4" y="16" width="1" height="1" fill="#666664"/>
  <rect x="5" y="16" width="1" height="1" fill="#1a2224"/>
  <rect x="6" y="16" width="1" height="1" fill="#070a09"/>
  <rect x="7" y="16" width="1" height="1" fill="#363634"/>
  <rect x="8" y="16" width="1" height="1" fill="#024624"/>
  <rect x="9" y="16" width="1" height="1" fill="#4e4e4c"/>
  <rect x="10" y="16" width="1" height="1" fill="#cacacc"/>
  <rect x="11" y="16" width="6" height="1" fill="#f6fefc"/>
  <rect x="17" y="16" width="1" height="1" fill="#eaeaed"/>
  <rect x="18" y="16" width="1" height="1" fill="#aaaaac"/>
  <rect x="19" y="16" width="1" height="1" fill="#1a2224"/>
  <rect x="20" y="16" width="1" height="1" fill="#061214"/>
  <rect x="21" y="16" width="3" height="1" fill="#161614"/>
  <rect x="24" y="16" width="1" height="1" fill="#666664"/>
  <rect x="4" y="17" width="2" height="1" fill="#020204"/>
  <rect x="6" y="17" width="1" height="1" fill="#1a2224"/>
  <rect x="7" y="17" width="1" height="1" fill="#363634"/>
  <rect x="8" y="17" width="1" height="1" fill="#1a2224"/>
  <rect x="9" y="17" width="1" height="1" fill="#aaaaac"/>
  <rect x="10" y="17" width="7" height="1" fill="#f6fefc"/>
  <rect x="17" y="17" width="1" height="1" fill="#eaeaed"/>
  <rect x="18" y="17" width="1" height="1" fill="#bababc"/>
  <rect x="19" y="17" width="1" height="1" fill="#4e4e4c"/>
  <rect x="20" y="17" width="1" height="1" fill="#070a09"/>
  <rect x="21" y="17" width="1" height="1" fill="#161614"/>
  <rect x="22" y="17" width="1" height="1" fill="#1a2224"/>
  <rect x="23" y="17" width="2" height="1" fill="#020204"/>
  <rect x="4" y="18" width="1" height="1" fill="#020204"/>
  <rect x="5" y="18" width="1" height="1" fill="#070a09"/>
  <rect x="6" y="18" width="1" height="1" fill="#363634"/>
  <rect x="7" y="18" width="1" height="1" fill="#161614"/>
  <rect x="8" y="18" width="1" height="1" fill="#4e4e4c"/>
  <rect x="9" y="18" width="1" height="1" fill="#dadadc"/>
  <rect x="10" y="18" width="7" height="1" fill="#f6fefc"/>
  <rect x="17" y="18" width="1" height="1" fill="#eaeaed"/>
  <rect x="18" y="18" width="1" height="1" fill="#bababc"/>
  <rect x="19" y="18" width="1" height="1" fill="#666664"/>
  <rect x="20" y="18" width="1" height="1" fill="#020204"/>
  <rect x="21" y="18" width="1" height="1" fill="#070a09"/>
  <rect x="22" y="18" width="1" height="1" fill="#262624"/>
  <rect x="23" y="18" width="1" height="1" fill="#161614"/>
  <rect x="24" y="18" width="1" height="1" fill="#070a09"/>
  <rect x="4" y="19" width="1" height="1" fill="#4e4e4c"/>
  <rect x="5" y="19" width="1" height="1" fill="#161614"/>
  <rect x="6" y="19" width="1" height="1" fill="#363634"/>
  <rect x="7" y="19" width="1" height="1" fill="#020204"/>
  <rect x="8" y="19" width="1" height="1" fill="#666664"/>
  <rect x="9" y="19" width="8" height="1" fill="#f6fefc"/>
  <rect x="17" y="19" width="1" height="1" fill="#eaeaed"/>
  <rect x="18" y="19" width="1" height="1" fill="#bababc"/>
  <rect x="19" y="19" width="1" height="1" fill="#929294"/>
  <rect x="20" y="19" width="2" height="1" fill="#020204"/>
  <rect x="22" y="19" width="1" height="1" fill="#3e3e3c"/>
  <rect x="23" y="19" width="1" height="1" fill="#161614"/>
  <rect x="24" y="19" width="1" height="1" fill="#4e4e4c"/>
  <rect x="6" y="20" width="1" height="1" fill="#2a2e2c"/>
  <rect x="7" y="20" width="1" height="1" fill="#020204"/>
  <rect x="8" y="20" width="1" height="1" fill="#7a7a7c"/>
  <rect x="9" y="20" width="7" height="1" fill="#f6fefc"/>
  <rect x="16" y="20" width="1" height="1" fill="#f6f6f4"/>
  <rect x="17" y="20" width="1" height="1" fill="#dadadc"/>
  <rect x="18" y="20" width="1" height="1" fill="#bababc"/>
  <rect x="19" y="20" width="1" height="1" fill="#aaaaac"/>
  <rect x="20" y="20" width="1" height="1" fill="#363634"/>
  <rect x="21" y="20" width="1" height="1" fill="#020204"/>
  <rect x="22" y="20" width="1" height="1" fill="#4e4e4c"/>
  <rect x="6" y="21" width="1" height="1" fill="#666664"/>
  <rect x="7" y="21" width="1" height="1" fill="#020204"/>
  <rect x="8" y="21" width="1" height="1" fill="#7a7a7c"/>
  <rect x="9" y="21" width="6" height="1" fill="#f6fefc"/>
  <rect x="15" y="21" width="1" height="1" fill="#f6f6f4"/>
  <rect x="16" y="21" width="1" height="1" fill="#eaeaed"/>
  <rect x="17" y="21" width="1" height="1" fill="#cacacc"/>
  <rect x="18" y="21" width="2" height="1" fill="#aaaaac"/>
  <rect x="20" y="21" width="1" height="1" fill="#4e4e4c"/>
  <rect x="21" y="21" width="1" height="1" fill="#020204"/>
  <rect x="22" y="21" width="1" height="1" fill="#666664"/>
  <rect x="7" y="22" width="1" height="1" fill="#020204"/>
  <rect x="8" y="22" width="1" height="1" fill="#6a6a74"/>
  <rect x="9" y="22" width="1" height="1" fill="#eaeaed"/>
  <rect x="10" y="22" width="1" height="1" fill="#f6f6f4"/>
  <rect x="11" y="22" width="1" height="1" fill="#f6fefc"/>
  <rect x="12" y="22" width="3" height="1" fill="#eaeaed"/>
  <rect x="15" y="22" width="1" height="1" fill="#dadadc"/>
  <rect x="16" y="22" width="1" height="1" fill="#cacacc"/>
  <rect x="17" y="22" width="1" height="1" fill="#bababc"/>
  <rect x="18" y="22" width="2" height="1" fill="#a69e94"/>
  <rect x="20" y="22" width="1" height="1" fill="#363634"/>
  <rect x="21" y="22" width="1" height="1" fill="#020204"/>
  <rect x="7" y="23" width="1" height="1" fill="#262624"/>
  <rect x="8" y="23" width="1" height="1" fill="#2a2e2c"/>
  <rect x="9" y="23" width="1" height="1" fill="#cacacc"/>
  <rect x="10" y="23" width="1" height="1" fill="#eaeaed"/>
  <rect x="11" y="23" width="3" height="1" fill="#dadadc"/>
  <rect x="14" y="23" width="2" height="1" fill="#cacacc"/>
  <rect x="16" y="23" width="1" height="1" fill="#bababc"/>
  <rect x="17" y="23" width="2" height="1" fill="#aaaaac"/>
  <rect x="19" y="23" width="1" height="1" fill="#7a7a7c"/>
  <rect x="20" y="23" width="1" height="1" fill="#070a09"/>
  <rect x="21" y="23" width="1" height="1" fill="#2a2e2c"/>
  <rect x="8" y="24" width="1" height="1" fill="#2a1a04"/>
  <rect x="9" y="24" width="1" height="1" fill="#5c5a62"/>
  <rect x="10" y="24" width="1" height="1" fill="#aaaaac"/>
  <rect x="11" y="24" width="3" height="1" fill="#bababc"/>
  <rect x="14" y="24" width="3" height="1" fill="#aaaaac"/>
  <rect x="17" y="24" width="2" height="1" fill="#929294"/>
  <rect x="19" y="24" width="1" height="1" fill="#2a2e2c"/>
  <rect x="20" y="24" width="1" height="1" fill="#020204"/>
  <rect x="21" y="24" width="1" height="1" fill="#9e6e1c"/>
  <rect x="8" y="25" width="1" height="1" fill="#d27604"/>
  <rect x="9" y="25" width="1" height="1" fill="#724204"/>
  <rect x="10" y="25" width="1" height="1" fill="#2a2e2c"/>
  <rect x="11" y="25" width="1" height="1" fill="#5c5a62"/>
  <rect x="12" y="25" width="4" height="1" fill="#7a7a7c"/>
  <rect x="16" y="25" width="1" height="1" fill="#6a6a74"/>
  <rect x="17" y="25" width="1" height="1" fill="#4e4e4c"/>
  <rect x="18" y="25" width="1" height="1" fill="#1a2224"/>
  <rect x="19" y="25" width="1" height="1" fill="#070a09"/>
  <rect x="20" y="25" width="1" height="1" fill="#8e5604"/>
  <rect x="21" y="25" width="1" height="1" fill="#feaa24"/>
  <rect x="8" y="26" width="2" height="1" fill="#fe9604"/>
  <rect x="10" y="26" width="1" height="1" fill="#8e5604"/>
  <rect x="11" y="26" width="1" height="1" fill="#623604"/>
  <rect x="12" y="26" width="1" height="1" fill="#724204"/>
  <rect x="13" y="26" width="1" height="1" fill="#967254"/>
  <rect x="14" y="26" width="1" height="1" fill="#a69e94"/>
  <rect x="15" y="26" width="1" height="1" fill="#5c5a62"/>
  <rect x="16" y="26" width="1" height="1" fill="#623604"/>
  <rect x="17" y="26" width="1" height="1" fill="#724204"/>
  <rect x="18" y="26" width="1" height="1" fill="#8e5604"/>
  <rect x="19" y="26" width="1" height="1" fill="#d27604"/>
  <rect x="20" y="26" width="1" height="1" fill="#fe9604"/>
  <rect x="21" y="26" width="1" height="1" fill="#feca4c"/>
  <rect x="8" y="27" width="1" height="1" fill="#feaa24"/>
  <rect x="9" y="27" width="3" height="1" fill="#feaa04"/>
  <rect x="12" y="27" width="1" height="1" fill="#fe8a04"/>
  <rect x="16" y="27" width="1" height="1" fill="#fe8a04"/>
  <rect x="17" y="27" width="3" height="1" fill="#fe9604"/>
  <rect x="20" y="27" width="1" height="1" fill="#feaa04"/>
  <rect x="9" y="28" width="1" height="1" fill="#feaa04"/>
  <rect x="10" y="28" width="2" height="1" fill="#feb604"/>
  <rect x="12" y="28" width="1" height="1" fill="#feaa04"/>
  <rect x="17" y="28" width="1" height="1" fill="#fe9604"/>
  <rect x="18" y="28" width="2" height="1" fill="#feaa04"/>
</svg>