<svg xmlns="http://www.w3.org/2000/svg" width="384" height="32" viewBox="0 0 384 32">
  <rect x="17" y="11" width="1" height="1" fill="#dd0204"/>
  <rect x="17" y="12" width="1" height="1" fill="#dd0204"/>
  <rect x="13" y="13" width="1" height="1" fill="#dd0204"/>
  <rect x="17" y="13" width="1" height="1" fill="#dd0204"/>
  <rect x="13" y="14" width="1" height="1" fill="#dd0204"/>
  <rect x="17" y="14" width="1" height="1" fill="#dd0204"/>
  <rect x="13" y="15" width="3" height="1" fill="#dd0204"/>
  <rect x="16" y="15" width="1" height="1" fill="#4a0204"/>
  <rect x="17" y="15" width="1" height="1" fill="#100204"/>
  <rect x="13" y="16" width="3" height="1" fill="#dd0204"/>
  <rect x="16" y="16" width="1" height="1" fill="#4a0204"/>
  <rect x="17" y="16" width="1" height="1" fill="#100204"/>
  <rect x="13" y="17" width="2" height="1" fill="#dd0204"/>
  <rect x="15" y="17" width="1" height="1" fill="#b10a0c"/>
  <rect x="16" y="17" width="1" height="1" fill="#dd0204"/>
  <rect x="17" y="17" width="2" height="1" fill="#100204"/>
  <rect x="11" y="18" width="3" height="1" fill="#dd0204"/>
  <rect x="14" y="18" width="1" height="1" fill="#b10a0c"/>
  <rect x="15" y="18" width="1" height="1" fill="#100204"/>
  <rect x="16" y="18" width="1" height="1" fill="#dd0204"/>
  <rect x="17" y="18" width="2" height="1" fill="#100204"/>
  <rect x="11" y="19" width="1" height="1" fill="#dd0204"/>
  <rect x="12" y="19" width="1" height="1" fill="#100204"/>
  <rect x="13" y="19" width="1" height="1" fill="#b10a0c"/>
  <rect x="14" y="19" width="1" height="1" fill="#4a0204"/>
  <rect x="15" y="19" width="1" height="1" fill="#100204"/>
  <rect x="16" y="19" width="4" height="1" fill="#dd0204"/>
  <rect x="10" y="20" width="2" height="1" fill="#b10a0c"/>
  <rect x="12" y="20" width="3" height="1" fill="#100204"/>
  <rect x="15" y="20" width="2" height="1" fill="#dd0204"/>
  <rect x="19" y="20" width="1" height="1" fill="#dd0204"/>
  <rect x="10" y="21" width="1" height="1" fill="#4a0204"/>
  <rect x="11" y="21" width="1" height="1" fill="#100204"/>
  <rect x="12" y="21" width="1" height="1" fill="#dd0204"/>
  <rect x="13" y="21" width="1" height="1" fill="#100204"/>
  <rect x="14" y="21" width="1" height="1" fill="#d8a6a6"/>
  <rect x="15" y="21" width="2" height="1" fill="#dd0204"/>
  <rect x="17" y="21" width="1" height="1" fill="#d8a6a6"/>
  <rect x="20" y="21" width="1" height="1" fill="#dd0204"/>
  <rect x="9" y="22" width="1" height="1" fill="#b10a0c"/>
  <rect x="10" y="22" width="1" height="1" fill="#100204"/>
  <rect x="11" y="22" width="1" height="1" fill="#b10a0c"/>
  <rect x="12" y="22" width="2" height="1" fill="#dd0204"/>
  <rect x="15" y="22" width="1" height="1" fill="#dd0204"/>
  <rect x="17" y="22" width="1" height="1" fill="#dd0204"/>
  <rect x="18" y="22" width="1" height="1" fill="#d8a6a6"/>
  <rect x="20" y="22" width="1" height="1" fill="#dd0204"/>
  <rect x="9" y="23" width="6" height="1" fill="#dd0204"/>
  <rect x="16" y="23" width="1" height="1" fill="#dd0204"/>
  <rect x="17" y="23" width="1" height="1" fill="#b10a0c"/>
  <rect x="18" y="23" width="3" height="1" fill="#dd0204"/>
  <rect x="9" y="24" width="2" height="1" fill="#dd0204"/>
  <rect x="11" y="24" width="1" height="1" fill="#100204"/>
  <rect x="12" y="24" width="1" height="1" fill="#b10a0c"/>
  <rect x="13" y="24" width="2" height="1" fill="#dd0204"/>
  <rect x="16" y="24" width="2" height="1" fill="#dd0204"/>
  <rect x="18" y="24" width="1" height="1" fill="#b10a0c"/>
  <rect x="19" y="24" width="1" height="1" fill="#dd0204"/>
  <rect x="20" y="24" width="1" height="1" fill="#b10a0c"/>
  <rect x="21" y="24" width="2" height="1" fill="#100204"/>
  <rect x="8" y="25" width="3" height="1" fill="#dd0204"/>
  <rect x="11" y="25" width="2" height="1" fill="#100204"/>
  <rect x="13" y="25" width="1" height="1" fill="#dd0204"/>
  <rect x="15" y="25" width="1" height="1" fill="#dd0204"/>
  <rect x="17" y="25" width="4" height="1" fill="#dd0204"/>
  <rect x="21" y="25" width="1" height="1" fill="#4a0204"/>
  <rect x="22" y="25" width="1" height="1" fill="#100204"/>
  <rect x="23" y="25" width="1" height="1" fill="#4a0204"/>
  <rect x="7" y="26" width="4" height="1" fill="#dd0204"/>
  <rect x="11" y="26" width="2" height="1" fill="#100204"/>
  <rect x="13" y="26" width="4" height="1" fill="#dd0204"/>
  <rect x="20" y="26" width="2" height="1" fill="#dd0204"/>
  <rect x="22" y="26" width="2" height="1" fill="#100204"/>
  <rect x="6" y="27" width="5" height="1" fill="#dd0204"/>
  <rect x="11" y="27" width="1" height="1" fill="#b10a0c"/>
  <rect x="12" y="27" width="1" height="1" fill="#4a0204"/>
  <rect x="13" y="27" width="4" height="1" fill="#dd0204"/>
  <rect x="19" y="27" width="4" height="1" fill="#dd0204"/>
  <rect x="23" y="27" width="3" height="1" fill="#b10a0c"/>
  <rect x="3" y="28" width="7" height="1" fill="#dd0204"/>
  <rect x="10" y="28" width="1" height="1" fill="#100204"/>
  <rect x="11" y="28" width="7" height="1" fill="#dd0204"/>
  <rect x="20" y="28" width="4" height="1" fill="#dd0204"/>
  <rect x="24" y="28" width="1" height="1" fill="#b10a0c"/>
  <rect x="25" y="28" width="1" height="1" fill="#100204"/>
  <rect x="26" y="28" width="1" height="1" fill="#dd0204"/>
  <rect x="2" y="29" width="7" height="1" fill="#dd0204"/>
  <rect x="9" y="29" width="1" height="1" fill="#100204"/>
  <rect x="10" y="29" width="1" height="1" fill="#4a0204"/>
  <rect x="11" y="29" width="1" height="1" fill="#dd0204"/>
  <rect x="12" y="29" width="2" height="1" fill="#4a0204"/>
  <rect x="14" y="29" width="2" height="1" fill="#100204"/>
  <rect x="16" y="29" width="1" height="1" fill="#b10a0c"/>
  <rect x="17" y="29" width="2" height="1" fill="#dd0204"/>
  <rect x="20" y="29" width="2" height="1" fill="#dd0204"/>
  <rect x="22" y="29" width="2" height="1" fill="#b10a0c"/>
  <rect x="24" y="29" width="1" height="1" fill="#100204"/>
  <rect x="25" y="29" width="1" height="1" fill="#b10a0c"/>
  <rect x="26" y="29" width="5" height="1" fill="#dd0204"/>
  <rect x="3" y="30" width="7" height="1" fill="#dd0204"/>
  <rect x="10" y="30" width="2" height="1" fill="#b10a0c"/>
  <rect x="12" y="30" width="5" height="1" fill="#100204"/>
  <rect x="17" y="30" width="1" height="1" fill="#b10a0c"/>
  <rect x="18" y="30" width="6" height="1" fill="#dd0204"/>
  <rect x="24" y="30" width="1" height="1" fill="#b10a0c"/>
  <rect x="25" y="30" width="3" height="1" fill="#dd0204"/>
  <rect x="8" y="31" width="16" height="1" fill="#dd0204"/>
</svg>