<svg xmlns="http://www.w3.org/2000/svg" width="240" height="30" viewBox="0 0 240 30">
  <rect x="11" y="5" width="1" height="1" fill="#b0a4a0"/>
  <rect x="12" y="5" width="1" height="1" fill="#49494b"/>
  <rect x="13" y="5" width="1" height="1" fill="#16110f"/>
  <rect x="14" y="5" width="2" height="1" fill="#020204"/>
  <rect x="16" y="5" width="1" height="1" fill="#0c0707"/>
  <rect x="17" y="5" width="1" height="1" fill="#49494b"/>
  <rect x="10" y="6" width="1" height="1" fill="#8e8e8c"/>
  <rect x="11" y="6" width="1" height="1" fill="#020204"/>
  <rect x="12" y="6" width="2" height="1" fill="#0c0707"/>
  <rect x="14" y="6" width="2" height="1" fill="#020204"/>
  <rect x="16" y="6" width="1" height="1" fill="#16110f"/>
  <rect x="17" y="6" width="1" height="1" fill="#020204"/>
  <rect x="18" y="6" width="1" height="1" fill="#272728"/>
  <rect x="10" y="7" width="1" height="1" fill="#16110f"/>
  <rect x="11" y="7" width="1" height="1" fill="#49494b"/>
  <rect x="12" y="7" width="1" height="1" fill="#c9c8c7"/>
  <rect x="13" y="7" width="1" height="1" fill="#8e8e8c"/>
  <rect x="14" y="7" width="1" height="1" fill="#020204"/>
  <rect x="15" y="7" width="1" height="1" fill="#393736"/>
  <rect x="16" y="7" width="1" height="1" fill="#d9d9da"/>
  <rect x="17" y="7" width="1" height="1" fill="#b8b8b6"/>
  <rect x="18" y="7" width="1" height="1" fill="#272728"/>
  <rect x="19" y="7" width="1" height="1" fill="#8e8e8c"/>
  <rect x="9" y="8" width="1" height="1" fill="#8e8e8c"/>
  <rect x="10" y="8" width="1" height="1" fill="#020204"/>
  <rect x="11" y="8" width="2" height="1" fill="#acacaa"/>
  <rect x="13" y="8" width="1" height="1" fill="#2e160a"/>
  <rect x="14" y="8" width="1" height="1" fill="#6c5125"/>
  <rect x="15" y="8" width="1" height="1" fill="#69696a"/>
  <rect x="16" y="8" width="1" height="1" fill="#393736"/>
  <rect x="17" y="8" width="1" height="1" fill="#f9fdfb"/>
  <rect x="18" y="8" width="1" height="1" fill="#8a827c"/>
  <rect x="19" y="8" width="1" height="1" fill="#393736"/>
  <rect x="20" y="8" width="1" height="1" fill="#8a827c"/>
  <rect x="1" y="9" width="1" height="1" fill="#69696a"/>
  <rect x="3" y="9" width="1" height="1" fill="#8a827c"/>
  <rect x="4" y="9" width="1" height="1" fill="#595958"/>
  <rect x="5" y="9" width="2" height="1" fill="#16110f"/>
  <rect x="7" y="9" width="3" height="1" fill="#0c0707"/>
  <rect x="10" y="9" width="1" height="1" fill="#16110f"/>
  <rect x="11" y="9" width="1" height="1" fill="#a66d51"/>
  <rect x="12" y="9" width="1" height="1" fill="#fc6604"/>
  <rect x="13" y="9" width="1" height="1" fill="#ea700b"/>
  <rect x="14" y="9" width="1" height="1" fill="#fecb65"/>
  <rect x="15" y="9" width="1" height="1" fill="#feefcc"/>
  <rect x="16" y="9" width="1" height="1" fill="#fddb8e"/>
  <rect x="17" y="9" width="1" height="1" fill="#fee599"/>
  <rect x="18" y="9" width="1" height="1" fill="#49494b"/>
  <rect x="19" y="9" width="4" height="1" fill="#020204"/>
  <rect x="23" y="9" width="1" height="1" fill="#393736"/>
  <rect x="24" y="9" width="1" height="1" fill="#595958"/>
  <rect x="25" y="9" width="1" height="1" fill="#767677"/>
  <rect x="1" y="10" width="1" height="1" fill="#272728"/>
  <rect x="2" y="10" width="1" height="1" fill="#0c0707"/>
  <rect x="3" y="10" width="6" height="1" fill="#020204"/>
  <rect x="9" y="10" width="1" height="1" fill="#0c0707"/>
  <rect x="10" y="10" width="1" height="1" fill="#ea700b"/>
  <rect x="11" y="10" width="1" height="1" fill="#fc6604"/>
  <rect x="12" y="10" width="1" height="1" fill="#fe8f17"/>
  <rect x="13" y="10" width="1" height="1" fill="#f9b24e"/>
  <rect x="14" y="10" width="1" height="1" fill="#fddb8e"/>
  <rect x="15" y="10" width="1" height="1" fill="#feebb0"/>
  <rect x="16" y="10" width="1" height="1" fill="#fee599"/>
  <rect x="17" y="10" width="1" height="1" fill="#f7d370"/>
  <rect x="18" y="10" width="1" height="1" fill="#a36016"/>
  <rect x="19" y="10" width="7" height="1" fill="#020204"/>
  <rect x="26" y="10" width="1" height="1" fill="#0c0707"/>
  <rect x="27" y="10" width="1" height="1" fill="#272728"/>
  <rect x="28" y="10" width="1" height="1" fill="#8a827c"/>
  <rect x="6" y="11" width="1" height="1" fill="#49494b"/>
  <rect x="7" y="11" width="2" height="1" fill="#020204"/>
  <rect x="9" y="11" width="1" height="1" fill="#0c0707"/>
  <rect x="10" y="11" width="1" height="1" fill="#6c5125"/>
  <rect x="11" y="11" width="2" height="1" fill="#f85604"/>
  <rect x="13" y="11" width="1" height="1" fill="#d76b16"/>
  <rect x="14" y="11" width="1" height="1" fill="#f85604"/>
  <rect x="15" y="11" width="2" height="1" fill="#ea700b"/>
  <rect x="17" y="11" width="1" height="1" fill="#d2a173"/>
  <rect x="18" y="11" width="1" height="1" fill="#a36016"/>
  <rect x="19" y="11" width="3" height="1" fill="#020204"/>
  <rect x="22" y="11" width="1" height="1" fill="#69696a"/>
  <rect x="8" y="12" width="1" height="1" fill="#0c0707"/>
  <rect x="9" y="12" width="2" height="1" fill="#020204"/>
  <rect x="11" y="12" width="1" height="1" fill="#16110f"/>
  <rect x="12" y="12" width="1" height="1" fill="#69696a"/>
  <rect x="13" y="12" width="3" height="1" fill="#8e8e8c"/>
  <rect x="16" y="12" width="1" height="1" fill="#8a827c"/>
  <rect x="17" y="12" width="1" height="1" fill="#393736"/>
  <rect x="18" y="12" width="3" height="1" fill="#020204"/>
  <rect x="21" y="12" width="1" height="1" fill="#49494b"/>
  <rect x="8" y="13" width="2" height="1" fill="#020204"/>
  <rect x="10" y="13" width="1" height="1" fill="#16110f"/>
  <rect x="11" y="13" width="1" height="1" fill="#c9c8c7"/>
  <rect x="12" y="13" width="4" height="1" fill="#f9fdfb"/>
  <rect x="16" y="13" width="1" height="1" fill="#e8eaea"/>
  <rect x="17" y="13" width="1" height="1" fill="#d2cecc"/>
  <rect x="18" y="13" width="1" height="1" fill="#69696a"/>
  <rect x="19" y="13" width="1" height="1" fill="#0c0707"/>
  <rect x="20" y="13" width="1" height="1" fill="#020204"/>
  <rect x="21" y="13" width="1" height="1" fill="#0c0707"/>
  <rect x="7" y="14" width="1" height="1" fill="#272728"/>
  <rect x="8" y="14" width="2" height="1" fill="#020204"/>
  <rect x="10" y="14" width="1" height="1" fill="#8e8e8c"/>
  <rect x="11" y="14" width="4" height="1" fill="#f9fdfb"/>
  <rect x="15" y="14" width="1" height="1" fill="#e8eaea"/>
  <rect x="16" y="14" width="2" height="1" fill="#c9c8c7"/>
  <rect x="18" y="14" width="1" height="1" fill="#acacaa"/>
  <rect x="19" y="14" width="1" height="1" fill="#49494b"/>
  <rect x="20" y="14" width="1" height="1" fill="#16110f"/>
  <rect x="21" y="14" width="1" height="1" fill="#020204"/>
  <rect x="22" y="14" width="1" height="1" fill="#767677"/>
  <rect x="7" y="15" width="2" height="1" fill="#020204"/>
  <rect x="9" y="15" width="1" height="1" fill="#49494b"/>
  <rect x="10" y="15" width="5" height="1" fill="#f9fdfb"/>
  <rect x="15" y="15" width="1" height="1" fill="#e8eaea"/>
  <rect x="16" y="15" width="1" height="1" fill="#c9c8c7"/>
  <rect x="17" y="15" width="2" height="1" fill="#b8b8b6"/>
  <rect x="19" y="15" width="1" height="1" fill="#8a827c"/>
  <rect x="20" y="15" width="1" height="1" fill="#272728"/>
  <rect x="21" y="15" width="1" height="1" fill="#0c0707"/>
  <rect x="22" y="15" width="1" height="1" fill="#272728"/>
  <rect x="6" y="16" width="1" height="1" fill="#767677"/>
  <rect x="7" y="16" width="2" height="1" fill="#020204"/>
  <rect x="9" y="16" width="1" height="1" fill="#767677"/>
  <rect x="10" y="16" width="5" height="1" fill="#f9fdfb"/>
  <rect x="15" y="16" width="1" height="1" fill="#e8eaea"/>
  <rect x="16" y="16" width="1" height="1" fill="#d9d9da"/>
  <rect x="17" y="16" width="2" height="1" fill="#b8b8b6"/>
  <rect x="19" y="16" width="1" height="1" fill="#acacaa"/>
  <rect x="20" y="16" width="1" height="1" fill="#49494b"/>
  <rect x="21" y="16" width="2" height="1" fill="#16110f"/>
  <rect x="6" y="17" width="1" height="1" fill="#393736"/>
  <rect x="7" y="17" width="2" height="1" fill="#020204"/>
  <rect x="9" y="17" width="1" height="1" fill="#b0a4a0"/>
  <rect x="10" y="17" width="6" height="1" fill="#f9fdfb"/>
  <rect x="16" y="17" width="1" height="1" fill="#d9d9da"/>
  <rect x="17" y="17" width="1" height="1" fill="#b8b8b6"/>
  <rect x="18" y="17" width="1" height="1" fill="#acacaa"/>
  <rect x="19" y="17" width="1" height="1" fill="#b8b8b6"/>
  <rect x="20" y="17" width="1" height="1" fill="#69696a"/>
  <rect x="21" y="17" width="1" height="1" fill="#272728"/>
  <rect x="22" y="17" width="1" height="1" fill="#020204"/>
  <rect x="23" y="17" width="1" height="1" fill="#767677"/>
  <rect x="6" y="18" width="1" height="1" fill="#272728"/>
  <rect x="7" y="18" width="1" height="1" fill="#020204"/>
  <rect x="8" y="18" width="1" height="1" fill="#0c0707"/>
  <rect x="9" y="18" width="1" height="1" fill="#c9c8c7"/>
  <rect x="10" y="18" width="6" height="1" fill="#f9fdfb"/>
  <rect x="16" y="18" width="1" height="1" fill="#d9d9da"/>
  <rect x="17" y="18" width="3" height="1" fill="#b8b8b6"/>
  <rect x="20" y="18" width="1" height="1" fill="#767677"/>
  <rect x="21" y="18" width="1" height="1" fill="#16110f"/>
  <rect x="22" y="18" width="2" height="1" fill="#0c0707"/>
  <rect x="6" y="19" width="1" height="1" fill="#0c0707"/>
  <rect x="7" y="19" width="1" height="1" fill="#020204"/>
  <rect x="8" y="19" width="1" height="1" fill="#16110f"/>
  <rect x="9" y="19" width="1" height="1" fill="#d9d9da"/>
  <rect x="10" y="19" width="6" height="1" fill="#f9fdfb"/>
  <rect x="16" y="19" width="1" height="1" fill="#d9d9da"/>
  <rect x="17" y="19" width="1" height="1" fill="#b8b8b6"/>
  <rect x="18" y="19" width="1" height="1" fill="#acacaa"/>
  <rect x="19" y="19" width="1" height="1" fill="#b8b8b6"/>
  <rect x="20" y="19" width="1" height="1" fill="#8e8e8c"/>
  <rect x="21" y="19" width="1" height="1" fill="#272728"/>
  <rect x="22" y="19" width="1" height="1" fill="#020204"/>
  <rect x="23" y="19" width="1" height="1" fill="#0c0707"/>
  <rect x="6" y="20" width="1" height="1" fill="#16110f"/>
  <rect x="7" y="20" width="1" height="1" fill="#020204"/>
  <rect x="8" y="20" width="1" height="1" fill="#272728"/>
  <rect x="9" y="20" width="1" height="1" fill="#d9d9da"/>
  <rect x="10" y="20" width="5" height="1" fill="#f9fdfb"/>
  <rect x="15" y="20" width="1" height="1" fill="#e8eaea"/>
  <rect x="16" y="20" width="1" height="1" fill="#d2cecc"/>
  <rect x="17" y="20" width="1" height="1" fill="#b8b8b6"/>
  <rect x="18" y="20" width="1" height="1" fill="#acacaa"/>
  <rect x="19" y="20" width="1" height="1" fill="#b8b8b6"/>
  <rect x="20" y="20" width="1" height="1" fill="#767677"/>
  <rect x="21" y="20" width="1" height="1" fill="#16110f"/>
  <rect x="22" y="20" width="1" height="1" fill="#020204"/>
  <rect x="23" y="20" width="1" height="1" fill="#0c0707"/>
  <rect x="4" y="21" width="1" height="1" fill="#feebb0"/>
  <rect x="5" y="21" width="1" height="1" fill="#f7d370"/>
  <rect x="6" y="21" width="1" height="1" fill="#fea707"/>
  <rect x="7" y="21" width="1" height="1" fill="#0c0707"/>
  <rect x="8" y="21" width="1" height="1" fill="#020204"/>
  <rect x="9" y="21" width="1" height="1" fill="#b8b8b6"/>
  <rect x="10" y="21" width="4" height="1" fill="#f9fdfb"/>
  <rect x="14" y="21" width="1" height="1" fill="#e8eaea"/>
  <rect x="15" y="21" width="1" height="1" fill="#d9d9da"/>
  <rect x="16" y="21" width="1" height="1" fill="#c9c8c7"/>
  <rect x="17" y="21" width="1" height="1" fill="#acacaa"/>
  <rect x="18" y="21" width="2" height="1" fill="#b8b8b6"/>
  <rect x="20" y="21" width="1" height="1" fill="#767677"/>
  <rect x="21" y="21" width="1" height="1" fill="#020204"/>
  <rect x="22" y="21" width="1" height="1" fill="#0c0707"/>
  <rect x="23" y="21" width="1" height="1" fill="#a66d51"/>
  <rect x="24" y="21" width="1" height="1" fill="#fecb65"/>
  <rect x="25" y="21" width="1" height="1" fill="#fee599"/>
  <rect x="3" y="22" width="1" height="1" fill="#fee599"/>
  <rect x="4" y="22" width="1" height="1" fill="#fecb65"/>
  <rect x="5" y="22" width="1" height="1" fill="#fdc54d"/>
  <rect x="6" y="22" width="2" height="1" fill="#fea707"/>
  <rect x="8" y="22" width="1" height="1" fill="#b98422"/>
  <rect x="9" y="22" width="1" height="1" fill="#aea591"/>
  <rect x="10" y="22" width="4" height="1" fill="#f9fdfb"/>
  <rect x="14" y="22" width="1" height="1" fill="#d9d9da"/>
  <rect x="15" y="22" width="1" height="1" fill="#c9c8c7"/>
  <rect x="16" y="22" width="1" height="1" fill="#b8b8b6"/>
  <rect x="17" y="22" width="1" height="1" fill="#acacaa"/>
  <rect x="18" y="22" width="1" height="1" fill="#b8b8b6"/>
  <rect x="19" y="22" width="1" height="1" fill="#acacaa"/>
  <rect x="20" y="22" width="1" height="1" fill="#6c5125"/>
  <rect x="21" y="22" width="1" height="1" fill="#b04c06"/>
  <rect x="22" y="22" width="1" height="1" fill="#fd7505"/>
  <rect x="23" y="22" width="1" height="1" fill="#fd8907"/>
  <rect x="24" y="22" width="1" height="1" fill="#fd9906"/>
  <rect x="25" y="22" width="1" height="1" fill="#f9b24e"/>
  <rect x="26" y="22" width="1" height="1" fill="#feebb0"/>
  <rect x="3" y="23" width="2" height="1" fill="#fecb65"/>
  <rect x="5" y="23" width="1" height="1" fill="#fea707"/>
  <rect x="6" y="23" width="1" height="1" fill="#fd8907"/>
  <rect x="7" y="23" width="1" height="1" fill="#fdb432"/>
  <rect x="8" y="23" width="1" height="1" fill="#f7d370"/>
  <rect x="9" y="23" width="1" height="1" fill="#fecb65"/>
  <rect x="10" y="23" width="1" height="1" fill="#ebc8a4"/>
  <rect x="11" y="23" width="2" height="1" fill="#e8eaea"/>
  <rect x="13" y="23" width="1" height="1" fill="#d2cecc"/>
  <rect x="14" y="23" width="2" height="1" fill="#b8b8b6"/>
  <rect x="16" y="23" width="1" height="1" fill="#acacaa"/>
  <rect x="17" y="23" width="2" height="1" fill="#b8b8b6"/>
  <rect x="19" y="23" width="1" height="1" fill="#a66d51"/>
  <rect x="20" y="23" width="1" height="1" fill="#fd7505"/>
  <rect x="21" y="23" width="1" height="1" fill="#fd9906"/>
  <rect x="22" y="23" width="1" height="1" fill="#fea707"/>
  <rect x="23" y="23" width="1" height="1" fill="#fd9906"/>
  <rect x="24" y="23" width="1" height="1" fill="#fd8907"/>
  <rect x="25" y="23" width="1" height="1" fill="#f9b24e"/>
  <rect x="26" y="23" width="1" height="1" fill="#fddb8e"/>
  <rect x="2" y="24" width="1" height="1" fill="#feefcc"/>
  <rect x="3" y="24" width="1" height="1" fill="#fecb65"/>
  <rect x="4" y="24" width="1" height="1" fill="#fdb432"/>
  <rect x="5" y="24" width="2" height="1" fill="#fd8907"/>
  <rect x="7" y="24" width="2" height="1" fill="#fea707"/>
  <rect x="9" y="24" width="1" height="1" fill="#fddb8e"/>
  <rect x="10" y="24" width="1" height="1" fill="#fecb65"/>
  <rect x="11" y="24" width="1" height="1" fill="#ebc8a4"/>
  <rect x="12" y="24" width="1" height="1" fill="#e8eaea"/>
  <rect x="13" y="24" width="1" height="1" fill="#d2cecc"/>
  <rect x="14" y="24" width="1" height="1" fill="#b8b8b6"/>
  <rect x="15" y="24" width="1" height="1" fill="#acacaa"/>
  <rect x="16" y="24" width="2" height="1" fill="#b8b8b6"/>
  <rect x="18" y="24" width="1" height="1" fill="#a66d51"/>
  <rect x="19" y="24" width="1" height="1" fill="#fc6604"/>
  <rect x="20" y="24" width="1" height="1" fill="#fd9906"/>
  <rect x="21" y="24" width="1" height="1" fill="#fea707"/>
  <rect x="22" y="24" width="1" height="1" fill="#fcb212"/>
  <rect x="23" y="24" width="1" height="1" fill="#fd9906"/>
  <rect x="24" y="24" width="1" height="1" fill="#fd7505"/>
  <rect x="25" y="24" width="1" height="1" fill="#fe8f17"/>
  <rect x="26" y="24" width="1" height="1" fill="#fddb8e"/>
  <rect x="27" y="24" width="1" height="1" fill="#feefcc"/>
  <rect x="2" y="25" width="1" height="1" fill="#fddb8e"/>
  <rect x="3" y="25" width="1" height="1" fill="#fecb65"/>
  <rect x="4" y="25" width="1" height="1" fill="#fe8f17"/>
  <rect x="5" y="25" width="1" height="1" fill="#f85604"/>
  <rect x="6" y="25" width="1" height="1" fill="#fc6604"/>
  <rect x="7" y="25" width="1" height="1" fill="#fd8907"/>
  <rect x="8" y="25" width="2" height="1" fill="#fea707"/>
  <rect x="10" y="25" width="1" height="1" fill="#fddb8e"/>
  <rect x="11" y="25" width="1" height="1" fill="#fea707"/>
  <rect x="12" y="25" width="1" height="1" fill="#767677"/>
  <rect x="13" y="25" width="2" height="1" fill="#b8b8b6"/>
  <rect x="15" y="25" width="1" height="1" fill="#acacaa"/>
  <rect x="16" y="25" width="1" height="1" fill="#8e8e8c"/>
  <rect x="17" y="25" width="1" height="1" fill="#69696a"/>
  <rect x="18" y="25" width="1" height="1" fill="#f85604"/>
  <rect x="19" y="25" width="1" height="1" fill="#fd8907"/>
  <rect x="20" y="25" width="1" height="1" fill="#fea707"/>
  <rect x="21" y="25" width="1" height="1" fill="#fcb212"/>
  <rect x="22" y="25" width="2" height="1" fill="#fea707"/>
  <rect x="24" y="25" width="1" height="1" fill="#fd7505"/>
  <rect x="25" y="25" width="1" height="1" fill="#fd8907"/>
  <rect x="26" y="25" width="1" height="1" fill="#fecb65"/>
  <rect x="27" y="25" width="1" height="1" fill="#feebb0"/>
  <rect x="2" y="26" width="1" height="1" fill="#f7d370"/>
  <rect x="3" y="26" width="1" height="1" fill="#f9b24e"/>
  <rect x="4" y="26" width="1" height="1" fill="#fd7505"/>
  <rect x="5" y="26" width="2" height="1" fill="#f85604"/>
  <rect x="7" y="26" width="1" height="1" fill="#fc6604"/>
  <rect x="8" y="26" width="1" height="1" fill="#fd8907"/>
  <rect x="9" y="26" width="1" height="1" fill="#fea707"/>
  <rect x="10" y="26" width="1" height="1" fill="#fecb65"/>
  <rect x="11" y="26" width="1" height="1" fill="#fea707"/>
  <rect x="12" y="26" width="1" height="1" fill="#020204"/>
  <rect x="13" y="26" width="1" height="1" fill="#393736"/>
  <rect x="14" y="26" width="1" height="1" fill="#49494b"/>
  <rect x="15" y="26" width="1" height="1" fill="#393736"/>
  <rect x="16" y="26" width="1" height="1" fill="#272728"/>
  <rect x="17" y="26" width="1" height="1" fill="#2e160a"/>
  <rect x="18" y="26" width="1" height="1" fill="#f85604"/>
  <rect x="19" y="26" width="1" height="1" fill="#fd9906"/>
  <rect x="20" y="26" width="2" height="1" fill="#fcb212"/>
  <rect x="22" y="26" width="1" height="1" fill="#fdc54d"/>
  <rect x="23" y="26" width="1" height="1" fill="#fdb432"/>
  <rect x="24" y="26" width="1" height="1" fill="#fd8907"/>
  <rect x="25" y="26" width="1" height="1" fill="#fd7505"/>
  <rect x="26" y="26" width="1" height="1" fill="#fcb212"/>
  <rect x="27" y="26" width="1" height="1" fill="#fee599"/>
  <rect x="3" y="27" width="2" height="1" fill="#fd9633"/>
  <rect x="5" y="27" width="2" height="1" fill="#fd7505"/>
  <rect x="7" y="27" width="1" height="1" fill="#f85604"/>
  <rect x="8" y="27" width="2" height="1" fill="#fd7505"/>
  <rect x="10" y="27" width="1" height="1" fill="#fd9633"/>
  <rect x="11" y="27" width="1" height="1" fill="#fdb432"/>
  <rect x="12" y="27" width="1" height="1" fill="#16110f"/>
  <rect x="13" y="27" width="1" height="1" fill="#020204"/>
  <rect x="14" y="27" width="4" height="1" fill="#0c0707"/>
  <rect x="18" y="27" width="1" height="1" fill="#f85604"/>
  <rect x="19" y="27" width="1" height="1" fill="#fd8907"/>
  <rect x="20" y="27" width="1" height="1" fill="#fcb212"/>
  <rect x="21" y="27" width="1" height="1" fill="#fdc54d"/>
  <rect x="22" y="27" width="1" height="1" fill="#fecb65"/>
  <rect x="23" y="27" width="1" height="1" fill="#fdb432"/>
  <rect x="24" y="27" width="2" height="1" fill="#f9b24e"/>
  <rect x="26" y="27" width="1" height="1" fill="#fcb212"/>
  <rect x="8" y="28" width="1" height="1" fill="#f9b24e"/>
  <rect x="9" y="28" width="2" height="1" fill="#fd9633"/>
  <rect x="11" y="28" width="2" height="1" fill="#0c0707"/>
  <rect x="13" y="28" width="4" height="1" fill="#020204"/>
  <rect x="17" y="28" width="2" height="1" fill="#0c0707"/>
  <rect x="19" y="28" width="1" height="1" fill="#fd9633"/>
  <rect x="20" y="28" width="1" height="1" fill="#f9b24e"/>
  <rect x="21" y="28" width="1" height="1" fill="#fecb65"/>
</svg>