<svg xmlns="http://www.w3.org/2000/svg" viewBox="0 0 100 100">
<g transform="rotate(-12 50 52)">
<g transform="rotate(-14 34 95)"><ellipse cx="34" cy="95" rx="10" ry="5" fill="#f7a70b" stroke="#d4870a" stroke-width="1"/></g><g transform="rotate(14 66 95)"><ellipse cx="66" cy="95" rx="10" ry="5" fill="#f7a70b" stroke="#d4870a" stroke-width="1"/></g>
<path d="M50 8 C31 8 21 27 21 52 C21 80 33 94 50 94 C67 94 79 80 79 52 C79 27 69 8 50 8 Z" fill="#1b1b1b"/>
<path d="M23 45 C8 38 -1 40 1 50 C2 56 9 58 18 55 C23 53 25 50 27 47 Z" fill="#1b1b1b"/><path d="M77 45 C92 38 101 40 99 50 C98 56 91 58 82 55 C77 53 75 50 73 47 Z" fill="#1b1b1b"/>
<path d="M50 40 C37 40 30 55 30 72 C30 87 39 92 50 92 C61 92 70 87 70 72 C70 55 63 40 50 40 Z" fill="#f4f4f4"/>
<ellipse cx="42" cy="33" rx="6" ry="8" fill="#fff"/><ellipse cx="42.0" cy="35" rx="2.6" ry="3.4" fill="#1b1b1b"/>
<ellipse cx="58" cy="33" rx="6" ry="8" fill="#fff"/><ellipse cx="58.0" cy="35" rx="2.6" ry="3.4" fill="#1b1b1b"/>
<path d="M50 35 C44 35 40 40 40 44 C40 47 45 49 50 49 C55 49 60 47 60 44 C60 40 56 35 50 35 Z" fill="#f7a70b" stroke="#d4870a" stroke-width="0.8"/><path d="M40 44 C46 47 54 47 60 44" fill="none" stroke="#d4870a" stroke-width="1.1"/>
</g>
</svg>
