<svg xmlns="http://www.w3.org/2000/svg" width="240" height="30" viewBox="0 0 240 30">
  <rect x="13" y="2" width="1" height="1" fill="#787878"/>
  <rect x="14" y="2" width="2" height="1" fill="#000000"/>
  <rect x="16" y="2" width="1" height="1" fill="#787878"/>
  <rect x="12" y="3" width="1" height="1" fill="#252525"/>
  <rect x="13" y="3" width="4" height="1" fill="#000000"/>
  <rect x="17" y="3" width="1" height="1" fill="#101010"/>
  <rect x="11" y="4" width="1" height="1" fill="#101010"/>
  <rect x="12" y="4" width="7" height="1" fill="#000000"/>
  <rect x="11" y="5" width="1" height="1" fill="#676767"/>
  <rect x="12" y="5" width="1" height="1" fill="#ececec"/>
  <rect x="13" y="5" width="1" height="1" fill="#555555"/>
  <rect x="14" y="5" width="5" height="1" fill="#000000"/>
  <rect x="19" y="5" width="1" height="1" fill="#464645"/>
  <rect x="10" y="6" width="1" height="1" fill="#f5d496"/>
  <rect x="11" y="6" width="2" height="1" fill="#181818"/>
  <rect x="13" y="6" width="1" height="1" fill="#ececec"/>
  <rect x="14" y="6" width="1" height="1" fill="#555555"/>
  <rect x="15" y="6" width="1" height="1" fill="#000000"/>
  <rect x="16" y="6" width="1" height="1" fill="#181818"/>
  <rect x="17" y="6" width="1" height="1" fill="#252525"/>
  <rect x="18" y="6" width="1" height="1" fill="#000000"/>
  <rect x="19" y="6" width="1" height="1" fill="#080808"/>
  <rect x="9" y="7" width="2" height="1" fill="#ffb715"/>
  <rect x="11" y="7" width="1" height="1" fill="#ffa713"/>
  <rect x="12" y="7" width="1" height="1" fill="#8f8f8f"/>
  <rect x="13" y="7" width="1" height="1" fill="#ffdeb5"/>
  <rect x="14" y="7" width="1" height="1" fill="#ad9452"/>
  <rect x="15" y="7" width="1" height="1" fill="#676767"/>
  <rect x="16" y="7" width="1" height="1" fill="#555555"/>
  <rect x="17" y="7" width="1" height="1" fill="#252525"/>
  <rect x="18" y="7" width="2" height="1" fill="#000000"/>
  <rect x="6" y="8" width="1" height="1" fill="#fec948"/>
  <rect x="7" y="8" width="1" height="1" fill="#f9ce7b"/>
  <rect x="8" y="8" width="1" height="1" fill="#fec948"/>
  <rect x="9" y="8" width="1" height="1" fill="#ffa713"/>
  <rect x="10" y="8" width="1" height="1" fill="#ff9803"/>
  <rect x="11" y="8" width="1" height="1" fill="#ffba34"/>
  <rect x="12" y="8" width="1" height="1" fill="#f5d496"/>
  <rect x="13" y="8" width="1" height="1" fill="#ffcd56"/>
  <rect x="14" y="8" width="1" height="1" fill="#ffba34"/>
  <rect x="15" y="8" width="1" height="1" fill="#9a691d"/>
  <rect x="16" y="8" width="4" height="1" fill="#000000"/>
  <rect x="6" y="9" width="5" height="1" fill="#ff9803"/>
  <rect x="11" y="9" width="2" height="1" fill="#ffa627"/>
  <rect x="13" y="9" width="1" height="1" fill="#ff9803"/>
  <rect x="14" y="9" width="1" height="1" fill="#c66b10"/>
  <rect x="15" y="9" width="1" height="1" fill="#563914"/>
  <rect x="16" y="9" width="1" height="1" fill="#080000"/>
  <rect x="17" y="9" width="2" height="1" fill="#000000"/>
  <rect x="19" y="9" width="1" height="1" fill="#343434"/>
  <rect x="7" y="10" width="5" height="1" fill="#fd8801"/>
  <rect x="12" y="10" width="1" height="1" fill="#bd6c01"/>
  <rect x="13" y="10" width="1" height="1" fill="#8a5006"/>
  <rect x="14" y="10" width="1" height="1" fill="#24190d"/>
  <rect x="15" y="10" width="2" height="1" fill="#000000"/>
  <rect x="17" y="10" width="1" height="1" fill="#101010"/>
  <rect x="18" y="10" width="1" height="1" fill="#080808"/>
  <rect x="19" y="10" width="1" height="1" fill="#464645"/>
  <rect x="11" y="11" width="1" height="1" fill="#9c7342"/>
  <rect x="12" y="11" width="1" height="1" fill="#080000"/>
  <rect x="13" y="11" width="4" height="1" fill="#000000"/>
  <rect x="17" y="11" width="1" height="1" fill="#101010"/>
  <rect x="18" y="11" width="2" height="1" fill="#252525"/>
  <rect x="10" y="12" width="1" height="1" fill="#8f8f8f"/>
  <rect x="11" y="12" width="1" height="1" fill="#101010"/>
  <rect x="12" y="12" width="7" height="1" fill="#000000"/>
  <rect x="19" y="12" width="1" height="1" fill="#181818"/>
  <rect x="20" y="12" width="1" height="1" fill="#343434"/>
  <rect x="9" y="13" width="1" height="1" fill="#464645"/>
  <rect x="10" y="13" width="1" height="1" fill="#181818"/>
  <rect x="11" y="13" width="1" height="1" fill="#343434"/>
  <rect x="12" y="13" width="2" height="1" fill="#000000"/>
  <rect x="14" y="13" width="1" height="1" fill="#080808"/>
  <rect x="15" y="13" width="1" height="1" fill="#343434"/>
  <rect x="16" y="13" width="1" height="1" fill="#101010"/>
  <rect x="17" y="13" width="3" height="1" fill="#000000"/>
  <rect x="20" y="13" width="1" height="1" fill="#101010"/>
  <rect x="21" y="13" width="1" height="1" fill="#343434"/>
  <rect x="8" y="14" width="1" height="1" fill="#555555"/>
  <rect x="9" y="14" width="1" height="1" fill="#080808"/>
  <rect x="10" y="14" width="1" height="1" fill="#dbdbdb"/>
  <rect x="11" y="14" width="1" height="1" fill="#ced6d6"/>
  <rect x="12" y="14" width="1" height="1" fill="#252525"/>
  <rect x="13" y="14" width="2" height="1" fill="#000000"/>
  <rect x="15" y="14" width="1" height="1" fill="#464645"/>
  <rect x="16" y="14" width="1" height="1" fill="#555555"/>
  <rect x="17" y="14" width="1" height="1" fill="#101010"/>
  <rect x="18" y="14" width="3" height="1" fill="#000000"/>
  <rect x="21" y="14" width="1" height="1" fill="#101010"/>
  <rect x="7" y="15" width="1" height="1" fill="#343434"/>
  <rect x="8" y="15" width="1" height="1" fill="#000000"/>
  <rect x="9" y="15" width="1" height="1" fill="#676767"/>
  <rect x="10" y="15" width="1" height="1" fill="#fffff7"/>
  <rect x="11" y="15" width="1" height="1" fill="#f7f7f7"/>
  <rect x="12" y="15" width="1" height="1" fill="#787878"/>
  <rect x="13" y="15" width="1" height="1" fill="#181818"/>
  <rect x="14" y="15" width="2" height="1" fill="#000000"/>
  <rect x="16" y="15" width="1" height="1" fill="#343434"/>
  <rect x="17" y="15" width="1" height="1" fill="#555555"/>
  <rect x="18" y="15" width="1" height="1" fill="#181818"/>
  <rect x="19" y="15" width="3" height="1" fill="#000000"/>
  <rect x="22" y="15" width="1" height="1" fill="#343434"/>
  <rect x="6" y="16" width="1" height="1" fill="#555555"/>
  <rect x="7" y="16" width="1" height="1" fill="#000000"/>
  <rect x="8" y="16" width="1" height="1" fill="#080808"/>
  <rect x="9" y="16" width="1" height="1" fill="#cbcbcb"/>
  <rect x="10" y="16" width="2" height="1" fill="#fffff7"/>
  <rect x="12" y="16" width="1" height="1" fill="#adadb5"/>
  <rect x="13" y="16" width="1" height="1" fill="#464645"/>
  <rect x="14" y="16" width="1" height="1" fill="#080808"/>
  <rect x="15" y="16" width="2" height="1" fill="#000000"/>
  <rect x="17" y="16" width="1" height="1" fill="#343434"/>
  <rect x="18" y="16" width="1" height="1" fill="#555555"/>
  <rect x="19" y="16" width="4" height="1" fill="#000000"/>
  <rect x="23" y="16" width="1" height="1" fill="#343434"/>
  <rect x="8" y="17" width="1" height="1" fill="#555555"/>
  <rect x="9" y="17" width="1" height="1" fill="#f7f7f7"/>
  <rect x="10" y="17" width="2" height="1" fill="#fffff7"/>
  <rect x="12" y="17" width="1" height="1" fill="#dbdbdb"/>
  <rect x="13" y="17" width="1" height="1" fill="#787878"/>
  <rect x="14" y="17" width="1" height="1" fill="#252525"/>
  <rect x="15" y="17" width="3" height="1" fill="#000000"/>
  <rect x="18" y="17" width="1" height="1" fill="#343434"/>
  <rect x="19" y="17" width="1" height="1" fill="#555555"/>
  <rect x="20" y="17" width="1" height="1" fill="#343434"/>
  <rect x="21" y="17" width="1" height="1" fill="#181818"/>
  <rect x="22" y="17" width="1" height="1" fill="#252525"/>
  <rect x="23" y="17" width="2" height="1" fill="#181818"/>
  <rect x="8" y="18" width="1" height="1" fill="#787878"/>
  <rect x="9" y="18" width="3" height="1" fill="#fffff7"/>
  <rect x="12" y="18" width="1" height="1" fill="#dbdbdb"/>
  <rect x="13" y="18" width="1" height="1" fill="#aaa9a9"/>
  <rect x="14" y="18" width="1" height="1" fill="#464645"/>
  <rect x="15" y="18" width="1" height="1" fill="#101010"/>
  <rect x="16" y="18" width="3" height="1" fill="#000000"/>
  <rect x="19" y="18" width="1" height="1" fill="#252525"/>
  <rect x="20" y="18" width="2" height="1" fill="#464645"/>
  <rect x="22" y="18" width="1" height="1" fill="#676767"/>
  <rect x="23" y="18" width="1" height="1" fill="#8f8f8f"/>
  <rect x="8" y="19" width="1" height="1" fill="#787878"/>
  <rect x="9" y="19" width="3" height="1" fill="#fffff7"/>
  <rect x="12" y="19" width="1" height="1" fill="#dbdbdb"/>
  <rect x="13" y="19" width="1" height="1" fill="#b9b9ba"/>
  <rect x="14" y="19" width="1" height="1" fill="#676767"/>
  <rect x="15" y="19" width="1" height="1" fill="#252525"/>
  <rect x="16" y="19" width="7" height="1" fill="#000000"/>
  <rect x="8" y="20" width="1" height="1" fill="#8f8f8f"/>
  <rect x="9" y="20" width="3" height="1" fill="#fffff7"/>
  <rect x="12" y="20" width="1" height="1" fill="#dbdbdb"/>
  <rect x="13" y="20" width="1" height="1" fill="#b9b9ba"/>
  <rect x="14" y="20" width="1" height="1" fill="#8f8f8f"/>
  <rect x="15" y="20" width="1" height="1" fill="#343434"/>
  <rect x="16" y="20" width="1" height="1" fill="#080808"/>
  <rect x="17" y="20" width="5" height="1" fill="#000000"/>
  <rect x="22" y="20" width="1" height="1" fill="#252525"/>
  <rect x="8" y="21" width="1" height="1" fill="#aaa9a9"/>
  <rect x="9" y="21" width="3" height="1" fill="#fffff7"/>
  <rect x="12" y="21" width="1" height="1" fill="#dbdbdb"/>
  <rect x="13" y="21" width="1" height="1" fill="#adadb5"/>
  <rect x="14" y="21" width="1" height="1" fill="#8f8f8f"/>
  <rect x="15" y="21" width="1" height="1" fill="#464645"/>
  <rect x="16" y="21" width="1" height="1" fill="#101010"/>
  <rect x="17" y="21" width="6" height="1" fill="#000000"/>
  <rect x="8" y="22" width="1" height="1" fill="#8f8f8f"/>
  <rect x="9" y="22" width="2" height="1" fill="#fffff7"/>
  <rect x="11" y="22" width="1" height="1" fill="#f7f7f7"/>
  <rect x="12" y="22" width="1" height="1" fill="#dbdbdb"/>
  <rect x="13" y="22" width="1" height="1" fill="#adadb5"/>
  <rect x="14" y="22" width="1" height="1" fill="#8f8f8f"/>
  <rect x="15" y="22" width="1" height="1" fill="#555555"/>
  <rect x="16" y="22" width="1" height="1" fill="#101010"/>
  <rect x="17" y="22" width="6" height="1" fill="#000000"/>
  <rect x="7" y="23" width="1" height="1" fill="#ffcd56"/>
  <rect x="8" y="23" width="1" height="1" fill="#fec948"/>
  <rect x="9" y="23" width="1" height="1" fill="#efebdf"/>
  <rect x="10" y="23" width="1" height="1" fill="#fffff7"/>
  <rect x="11" y="23" width="1" height="1" fill="#ced6d6"/>
  <rect x="12" y="23" width="1" height="1" fill="#cbcbcb"/>
  <rect x="13" y="23" width="1" height="1" fill="#b9b9ba"/>
  <rect x="14" y="23" width="1" height="1" fill="#aaa9a9"/>
  <rect x="15" y="23" width="1" height="1" fill="#555555"/>
  <rect x="16" y="23" width="1" height="1" fill="#181818"/>
  <rect x="17" y="23" width="6" height="1" fill="#000000"/>
  <rect x="5" y="24" width="1" height="1" fill="#ffb715"/>
  <rect x="6" y="24" width="1" height="1" fill="#ffa713"/>
  <rect x="7" y="24" width="1" height="1" fill="#ffb715"/>
  <rect x="8" y="24" width="1" height="1" fill="#ffc832"/>
  <rect x="9" y="24" width="2" height="1" fill="#ffb715"/>
  <rect x="11" y="24" width="1" height="1" fill="#ced6d6"/>
  <rect x="12" y="24" width="2" height="1" fill="#b9b9ba"/>
  <rect x="14" y="24" width="1" height="1" fill="#aaa9a9"/>
  <rect x="15" y="24" width="1" height="1" fill="#555555"/>
  <rect x="16" y="24" width="1" height="1" fill="#181818"/>
  <rect x="17" y="24" width="5" height="1" fill="#000000"/>
  <rect x="22" y="24" width="1" height="1" fill="#252525"/>
  <rect x="6" y="25" width="1" height="1" fill="#ffa713"/>
  <rect x="7" y="25" width="1" height="1" fill="#ffb715"/>
  <rect x="8" y="25" width="1" height="1" fill="#ffba34"/>
  <rect x="9" y="25" width="1" height="1" fill="#ffc832"/>
  <rect x="10" y="25" width="1" height="1" fill="#ffb715"/>
  <rect x="11" y="25" width="1" height="1" fill="#debd6b"/>
  <rect x="12" y="25" width="2" height="1" fill="#cbcbcb"/>
  <rect x="14" y="25" width="1" height="1" fill="#adadb5"/>
  <rect x="15" y="25" width="1" height="1" fill="#555555"/>
  <rect x="16" y="25" width="1" height="1" fill="#101010"/>
  <rect x="17" y="25" width="5" height="1" fill="#000000"/>
  <rect x="22" y="25" width="1" height="1" fill="#181818"/>
  <rect x="23" y="25" width="1" height="1" fill="#343434"/>
  <rect x="24" y="25" width="1" height="1" fill="#000000"/>
  <rect x="25" y="25" width="1" height="1" fill="#080808"/>
  <rect x="7" y="26" width="1" height="1" fill="#f6b150"/>
  <rect x="8" y="26" width="1" height="1" fill="#ffa713"/>
  <rect x="9" y="26" width="1" height="1" fill="#ffba34"/>
  <rect x="10" y="26" width="1" height="1" fill="#fec948"/>
  <rect x="11" y="26" width="2" height="1" fill="#ffb715"/>
  <rect x="13" y="26" width="1" height="1" fill="#d3bd8a"/>
  <rect x="14" y="26" width="1" height="1" fill="#b5ad94"/>
  <rect x="15" y="26" width="1" height="1" fill="#464645"/>
  <rect x="16" y="26" width="1" height="1" fill="#101010"/>
  <rect x="17" y="26" width="9" height="1" fill="#000000"/>
  <rect x="8" y="27" width="1" height="1" fill="#ffbd63"/>
  <rect x="9" y="27" width="1" height="1" fill="#ff9803"/>
  <rect x="10" y="27" width="1" height="1" fill="#ffa713"/>
  <rect x="11" y="27" width="1" height="1" fill="#ffba34"/>
  <rect x="12" y="27" width="1" height="1" fill="#ffa713"/>
  <rect x="13" y="27" width="2" height="1" fill="#a58439"/>
  <rect x="15" y="27" width="1" height="1" fill="#343434"/>
  <rect x="16" y="27" width="7" height="1" fill="#000000"/>
  <rect x="23" y="27" width="1" height="1" fill="#080808"/>
  <rect x="24" y="27" width="1" height="1" fill="#000000"/>
  <rect x="10" y="28" width="1" height="1" fill="#f6b150"/>
  <rect x="11" y="28" width="3" height="1" fill="#ff9803"/>
  <rect x="14" y="28" width="1" height="1" fill="#c66b10"/>
  <rect x="15" y="28" width="1" height="1" fill="#4f300b"/>
  <rect x="16" y="28" width="4" height="1" fill="#000000"/>
  <rect x="20" y="28" width="1" height="1" fill="#080808"/>
  <rect x="21" y="28" width="1" height="1" fill="#4f300b"/>
  <rect x="22" y="28" width="1" height="1" fill="#9c7342"/>
  <rect x="12" y="29" width="1" height="1" fill="#f6b150"/>
  <rect x="13" y="29" width="1" height="1" fill="#ff9912"/>
  <rect x="14" y="29" width="2" height="1" fill="#fd8801"/>
  <rect x="16" y="29" width="1" height="1" fill="#8a5006"/>
  <rect x="17" y="29" width="2" height="1" fill="#4f300b"/>
  <rect x="19" y="29" width="1" height="1" fill="#8a5006"/>
  <rect x="20" y="29" width="1" height="1" fill="#c66b10"/>
</svg>