<svg xmlns="http://www.w3.org/2000/svg" viewBox="0 0 100 100">
<ellipse cx="43" cy="94" rx="13" ry="5" fill="#f7a70b" stroke="#d4870a" stroke-width="1"/><path d="M62 40 C62 20 52 10 42 10 C30 10 24 22 24 38 C24 44 22 50 22 64 C22 82 30 92 44 92 C58 92 64 80 64 62 C64 54 62 48 62 40 Z" fill="#1b1b1b"/><path d="M28 45 C21 53 21 72 26 82 C30 89 41 89 45 84 C46 70 46 56 44 47 C40 42 32 42 28 45 Z" fill="#f4f4f4"/><path d="M24 34 C16 34 12 37 12 40 C12 43 16 45 24 44 Z" fill="#f7a70b" stroke="#d4870a" stroke-width="0.8"/><ellipse cx="34" cy="30" rx="5.5" ry="7" fill="#fff"/><ellipse cx="31.5" cy="32" rx="2.4" ry="3.2" fill="#1b1b1b"/><path d="M50 46 C56 52 56 68 52 76 C49 80 45 76 45 68 C45 60 46 52 47 47 Z" fill="#1b1b1b"/><ellipse cx="56" cy="93" rx="11" ry="4.5" fill="#d4870a"/>
</svg>
