<svg xmlns="http://www.w3.org/2000/svg" viewBox="0 0 100 100">
<defs>
<radialGradient id="sh" cx="38%" cy="26%" r="72%"><stop offset="0%" stop-color="#1e2840"/><stop offset="28%" stop-color="#0c1728"/><stop offset="65%" stop-color="#060e1c"/><stop offset="100%" stop-color="#000408"/></radialGradient>
<radialGradient id="gl" cx="36%" cy="22%" r="45%"><stop offset="0%" stop-color="rgba(100,180,255,0.38)"/><stop offset="55%" stop-color="rgba(80,150,220,0.06)"/><stop offset="100%" stop-color="rgba(255,255,255,0)"/></radialGradient>
<radialGradient id="hd" cx="42%" cy="26%" r="62%"><stop offset="0%" stop-color="#182230"/><stop offset="100%" stop-color="#040b12"/></radialGradient>
<radialGradient id="gs" cx="50%" cy="50%" r="50%"><stop offset="0%" stop-color="rgba(0,0,0,0.32)"/><stop offset="100%" stop-color="rgba(0,0,0,0)"/></radialGradient>
<filter id="sf" x="-60%" y="-60%" width="220%" height="220%"><feGaussianBlur stdDeviation="3"/></filter>
<filter id="eg" x="-100%" y="-100%" width="300%" height="300%"><feGaussianBlur in="SourceAlpha" stdDeviation="2.5" result="b"/><feFlood flood-color="#00d4ff" flood-opacity="0.9" result="c"/><feComposite in="c" in2="b" operator="in" result="g"/><feMerge><feMergeNode in="g"/><feMergeNode in="SourceGraphic"/></feMerge></filter>
</defs>
<ellipse cx="55" cy="90" rx="20" ry="5" fill="url(#gs)" filter="url(#sf)" opacity="0.30"/>
<g transform="rotate(-55, 50, 52)">
<g stroke="#0d1520" stroke-width="1.2" stroke-linecap="round" fill="none"><path d="M39 50 C31 43 22 36 14 30"/><path d="M36 62 C27 60 18 58 10 56"/><path d="M38 74 C30 80 24 85 19 89"/><path d="M61 50 C69 43 78 36 86 30"/><path d="M64 62 C73 60 82 58 90 56"/><path d="M62 74 C70 80 76 85 81 89"/></g>
<ellipse cx="50" cy="63" rx="21" ry="24" fill="url(#sh)"/>
<path d="M50 40 C50.5 55 50.5 72 50 87" stroke="rgba(0,20,60,0.55)" stroke-width="0.85" fill="none"/>
<ellipse cx="50" cy="63" rx="21" ry="24" fill="none" stroke="rgba(0,10,30,0.90)" stroke-width="1.5"/>
<ellipse cx="50" cy="63" rx="21" ry="24" fill="url(#gl)"/>
<path d="M37 42 Q50 49 63 42 L61 40 Q50 44 39 40 Z" fill="#080e18"/>
<ellipse cx="50" cy="37" rx="12.5" ry="9.5" fill="url(#hd)"/><ellipse cx="50" cy="37" rx="12.5" ry="9.5" fill="none" stroke="rgba(0,0,0,0.72)" stroke-width="0.7"/>
<ellipse cx="45" cy="33" rx="5" ry="3" fill="rgba(100,180,255,0.08)" transform="rotate(-12 45 33)"/>
<circle cx="44" cy="34.5" r="3.1" fill="#00ccff" filter="url(#eg)"/><circle cx="56" cy="34.5" r="3.1" fill="#00ccff" filter="url(#eg)"/>
<path d="M44 29 C40 22 36 17 32 13" stroke="#0d1928" stroke-width="1.1" fill="none" stroke-linecap="round"/><circle cx="32" cy="13" r="1.8" fill="#0d1928"/><circle cx="32" cy="13" r="0.65" fill="rgba(100,200,255,0.30)"/>
<path d="M56 29 C60 22 64 17 68 13" stroke="#0d1928" stroke-width="1.1" fill="none" stroke-linecap="round"/><circle cx="68" cy="13" r="1.8" fill="#0d1928"/><circle cx="68" cy="13" r="0.65" fill="rgba(100,200,255,0.30)"/>
</g>
</svg>
