<svg xmlns="http://www.w3.org/2000/svg" viewBox="0 0 100 100">
<defs>
<radialGradient id="sh" cx="38%" cy="26%" r="72%"><stop offset="0%" stop-color="#ff8a65"/><stop offset="28%" stop-color="#e53935"/><stop offset="65%" stop-color="#b71c1c"/><stop offset="100%" stop-color="#3d0000"/></radialGradient>
<radialGradient id="gl" cx="36%" cy="22%" r="45%"><stop offset="0%" stop-color="rgba(255,255,255,0.52)"/><stop offset="55%" stop-color="rgba(255,255,255,0.08)"/><stop offset="100%" stop-color="rgba(255,255,255,0)"/></radialGradient>
<radialGradient id="hd" cx="42%" cy="26%" r="62%"><stop offset="0%" stop-color="#323232"/><stop offset="100%" stop-color="#040404"/></radialGradient>
<radialGradient id="gs" cx="50%" cy="50%" r="50%"><stop offset="0%" stop-color="rgba(0,0,0,0.32)"/><stop offset="100%" stop-color="rgba(0,0,0,0)"/></radialGradient>
<radialGradient id="sk" cx="33%" cy="27%" r="68%"><stop offset="0%" stop-color="#1f0000"/><stop offset="100%" stop-color="#000000"/></radialGradient>
<filter id="sf" x="-60%" y="-60%" width="220%" height="220%"><feGaussianBlur stdDeviation="3"/></filter>
</defs>
<ellipse cx="50" cy="88" rx="22" ry="5" fill="url(#gs)" filter="url(#sf)" opacity="0.30"/>
<ellipse cx="50" cy="21" rx="12" ry="3.5" fill="none" stroke="rgba(255,240,150,0.72)" stroke-width="2.2"/>
<g opacity="0.55">
<g stroke="#141414" stroke-width="1.2" stroke-linecap="round" fill="none"><path d="M40 51 C33 48 24 45 17 42"/><path d="M37 63 C29 64 20 67 13 71"/><path d="M39 74 C31 77 23 82 18 87"/><path d="M60 51 C67 48 76 45 83 42"/><path d="M63 63 C71 64 80 67 87 71"/><path d="M61 74 C69 77 77 82 82 87"/></g>
<ellipse cx="50" cy="61" rx="21" ry="24" fill="url(#sh)"/>
<path d="M50 38 C50.5 53 50.5 70 50 85" stroke="rgba(50,0,0,0.65)" stroke-width="0.85" fill="none"/>
<ellipse cx="50" cy="61" rx="21" ry="24" fill="none" stroke="rgba(15,0,0,0.88)" stroke-width="1.5"/>
<circle cx="42" cy="52" r="5.2" fill="url(#sk)"/><circle cx="58" cy="52" r="5.2" fill="url(#sk)"/><circle cx="40" cy="65" r="4.2" fill="url(#sk)"/><circle cx="60" cy="65" r="4.2" fill="url(#sk)"/><circle cx="46" cy="77" r="3.1" fill="url(#sk)"/><circle cx="54" cy="77" r="3.1" fill="url(#sk)"/>
<ellipse cx="50" cy="61" rx="21" ry="24" fill="url(#gl)"/>
<path d="M37 40 Q50 47 63 40 L61 38 Q50 42 39 38 Z" fill="#0d0d0d"/>
<ellipse cx="50" cy="35" rx="12.5" ry="9.5" fill="url(#hd)"/><ellipse cx="50" cy="35" rx="12.5" ry="9.5" fill="none" stroke="rgba(0,0,0,0.72)" stroke-width="0.7"/>
<ellipse cx="45" cy="31" rx="5" ry="3" fill="rgba(255,255,255,0.09)" transform="rotate(-12 45 31)"/>
<circle cx="44" cy="32.5" r="3.1" fill="#070707"/><circle cx="56" cy="32.5" r="3.1" fill="#070707"/>
<ellipse cx="43" cy="31.4" rx="1.1" ry="0.9" fill="rgba(255,255,255,0.62)"/><ellipse cx="55" cy="31.4" rx="1.1" ry="0.9" fill="rgba(255,255,255,0.62)"/>
<path d="M44 27 C40 20 36 15 32 11" stroke="#191919" stroke-width="1.1" fill="none" stroke-linecap="round"/><circle cx="32" cy="11" r="1.8" fill="#191919"/>
<path d="M56 27 C60 20 64 15 68 11" stroke="#191919" stroke-width="1.1" fill="none" stroke-linecap="round"/><circle cx="68" cy="11" r="1.8" fill="#191919"/>
</g>
</svg>
